<!-- Generator: Adobe Illustrator 21.0.2, SVG Export Plug-In  -->
<svg version="1.1"
	 xmlns="http://www.w3.org/2000/svg" xmlns:xlink="http://www.w3.org/1999/xlink" xmlns:a="http://ns.adobe.com/AdobeSVGViewerExtensions/3.0/"
	 x="0px" y="0px" width="512px" height="324.3px" viewBox="0 0 512 324.3" style="enable-background:new 0 0 512 324.3;"
	 xml:space="preserve">
<defs>
</defs>
<g transform="translate(1 1)">
	<g>
		<g>
			<path d="M340.3,67.3h119.5c5.1,0,8.5-3.4,8.5-8.5V24.6c0-5.1-3.4-8.5-8.5-8.5H340.3c-5.1,0-8.5,3.4-8.5,8.5v34.1
				C331.8,63.9,335.2,67.3,340.3,67.3z M348.9,33.2h102.4v17.1H348.9V33.2z"/>
			<path d="M216.6,144.1c17.1-11.1,37.5-34.1,29.9-76.8C237.1,11.8,180.8-1.8,151.7-1H7.5C2.4-1-1,2.4-1,7.6v290.1
				c0,5.1,3.4,8.5,8.5,8.5h147.6c2.6,0,5.1,0,7.7,0c35.8,0,93.9-14.5,100.7-73.4C269.5,179.9,238.8,155.2,216.6,144.1z M246.5,230.3
				c-7.7,63.1-86.2,58.9-90.5,58.9H16.1V16.1h135.7c0.9,0,68.3,0,77.7,53.8c9.4,52.9-35,65.7-36.7,66.6c-3.4,0.9-6,4.3-6,8.5
				s2.6,7.7,6.8,8.5C196.1,153.5,254.1,167.1,246.5,230.3z"/>
			<path d="M511,212.4c0-75.1-49.5-128-119.5-128c-68.3,0-119.5,58.9-119.5,110.9c0,73.4,51.2,128,119.5,128
				c77.7,0,108.4-63.1,110.9-75.1c0.9-2.6,0-5.1-1.7-6.8c-1.7-2.6-4.3-3.4-6.8-3.4h-51.2c-3.4,0-6.8,2.6-7.7,6
				c-3.4,6.8-11.1,19.6-35,19.6c-24.7,0-40.1-15.4-42.7-42.7h145.1C507.6,220.9,511,217.5,511,212.4z M348,203.8
				c-5.1,0-8.5,3.4-8.5,8.5c0,41.8,23,68.3,59.7,68.3c29.9,0,43.5-15.4,48.6-25.6h32.4c-10.2,17.9-36.7,51.2-88.7,51.2
				c-59.7,0-102.4-46.9-102.4-110.9c0-43.5,44.4-93.9,102.4-93.9c66.6,0,99,51.2,101.5,102.4L348,203.8L348,203.8z"/>
			<path d="M67.3,127h85.3c23.9,0,42.7-18.8,42.7-42.7c0-23.9-18.8-42.7-42.7-42.7H67.3c-5.1,0-8.5,3.4-8.5,8.5v68.3
				C58.7,123.6,62.1,127,67.3,127z M75.8,58.8h76.8c14.5,0,25.6,11.1,25.6,25.6S167.1,110,152.6,110H75.8V58.8z"/>
			<path d="M144.1,161.2H67.3c-5.1,0-8.5,3.4-8.5,8.5V255c0,5.1,3.4,8.5,8.5,8.5h76.8c28.2,0,51.2-23,51.2-51.2
				C195.3,184.2,172.2,161.2,144.1,161.2z M144.1,246.5H75.8v-68.3h68.3c18.8,0,34.1,15.4,34.1,34.1
				C178.2,231.1,162.8,246.5,144.1,246.5z"/>
			<path d="M395.8,118.5c-35,0-55.5,26.5-55.5,51.2v8.5c0,5.1,3.4,8.5,8.5,8.5h93.9c5.1,0,8.5-3.4,8.5-8.5v-8.5
				C451.3,145,431.6,118.5,395.8,118.5z M357.4,169.7c0-16.2,13.7-34.1,38.4-34.1s38.4,17.9,38.4,34.1H357.4z"/>
		</g>
	</g>
</g>
</svg>