<svg width="41" height="37" viewBox="0 0 41 37" fill="none" xmlns="http://www.w3.org/2000/svg">
<path d="M34.8406 10.1201V10.9175L35.618 11.095C37.5931 11.5461 39.0788 13.3388 39.0624 15.4804V15.4881C39.0624 17.636 37.5819 19.4221 35.6041 19.882L34.8306 20.0618V20.856V29.7387C34.8306 29.8358 34.772 29.9237 34.6713 29.9598C34.6602 29.9632 34.6397 29.9674 34.613 29.9674C34.561 29.9674 34.495 29.9447 34.4375 29.8673L34.4342 29.8629C34.0966 29.4139 28.9808 22.837 16.7077 22.837H14.3023H12.8125L13.3768 24.2158L18.0642 35.6682C18.1164 35.8065 18.0529 35.9317 17.9519 35.9809C17.9021 35.9981 17.876 36 17.8554 36C17.7736 36 17.6893 35.9461 17.6559 35.8627L17.6532 35.8561L12.583 23.4585L12.3289 22.837H11.6574H6.98647C3.6947 22.837 1 20.1309 1 16.7872V14.1687C1 10.825 3.6947 8.11895 6.98647 8.11895H16.7176C20.3631 8.11895 25.5884 7.24716 34.4837 1.04231C34.5614 0.989335 34.6507 0.989883 34.7138 1.02331L34.7137 1.02335L34.7227 1.02801C34.7961 1.06594 34.8406 1.13393 34.8406 1.22733V10.1201ZM12.2582 9.58637V8.58637H11.2582H6.98647C3.92055 8.58637 1.44527 11.0971 1.44527 14.1687V16.7872C1.44527 19.8588 3.92055 22.3696 6.98647 22.3696H11.2582H12.2582V21.3696V9.58637ZM32.7562 27.5368L34.3953 28.8989V26.7677V3.54369V1.70141L32.8505 2.70515C24.8115 7.92839 19.9881 8.58637 16.7077 8.58637H13.6935H12.6935V9.58637V21.3696V22.3696H13.6935H16.7077C25.0854 22.3696 30.1948 25.4083 32.7562 27.5368ZM34.8406 18.2576V19.8006L36.249 19.1704C37.6523 18.5426 38.639 17.1254 38.6271 15.4836C38.6254 13.8462 37.6598 12.4268 36.249 11.7956L34.8406 11.1655V12.7084V18.2576Z" fill="#EA4D27" stroke="#EA4D27" stroke-width="0.5"/>
</svg>
