<svg width="41" height="37" viewBox="0 0 41 37" fill="none" xmlns="http://www.w3.org/2000/svg">
<path d="M38.2555 15.4866C38.2549 14.1083 37.4434 12.9176 36.2619 12.3889L35.7689 12.1684V12.7084V18.2576V18.7976L36.2619 18.5771C37.4407 18.0497 38.2661 16.8598 38.2555 15.4866ZM38.2555 15.4866C38.2555 15.4871 38.2555 15.4876 38.2555 15.4881H37.9055M38.2555 15.4866C38.2555 15.4862 38.2555 15.4857 38.2555 15.4852L37.9055 15.4881M37.9055 15.4881C37.9143 16.5761 37.3361 17.5378 36.4689 18.0724V18.2576H36.1189L35.976 17.9381C36.0244 17.9165 36.0721 17.8934 36.1189 17.869V13.0971C36.0721 13.0727 36.0244 13.0496 35.976 13.0279L36.1189 12.7084H36.4689V12.8938C37.3342 13.4286 37.9055 14.3912 37.9055 15.4881ZM35.7689 10.1201V10.3992L36.041 10.4614C38.3087 10.9793 40.0095 13.0338 39.9908 15.4854V15.4881C39.9908 17.9419 38.2983 19.9875 36.0297 20.5151L35.7589 20.578V20.856V29.7387C35.7589 30.1197 35.5178 30.4516 35.158 30.5756C35.0768 30.6028 34.9853 30.6174 34.8913 30.6174C34.6266 30.6174 34.3699 30.4916 34.1941 30.255L34.193 30.2535C33.9321 29.9065 28.9887 23.487 16.986 23.487H14.5806H14.0592L14.2567 23.9696L18.9458 35.4261C18.9461 35.4268 18.9464 35.4274 18.9466 35.4281C19.1267 35.8891 18.9161 36.3965 18.4735 36.5841C18.3502 36.6301 18.244 36.65 18.1338 36.65C17.7937 36.65 17.4658 36.4413 17.3308 36.1044L17.3299 36.1021L12.2597 23.7045L12.1708 23.487H11.9358H7.26479C3.60852 23.487 0.62832 20.4844 0.62832 16.7872V14.1687C0.62832 10.4716 3.60852 7.46895 7.26479 7.46895H16.996C20.4841 7.46895 25.5827 6.65319 34.3922 0.507757C34.6659 0.319172 35.0149 0.299826 35.2964 0.448945L35.2995 0.450575C35.5912 0.601321 35.7689 0.893513 35.7689 1.22733V10.1201ZM11.8865 9.58637V9.23637H11.5365H7.26479C4.56337 9.23637 2.37359 11.4506 2.37359 14.1687V16.7872C2.37359 19.5054 4.56337 21.7196 7.26479 21.7196H11.5365H11.8865V21.3696V9.58637ZM33.45 27.0369L34.0237 27.5137V26.7677V3.54369V2.89889L33.483 3.2502C25.3496 8.53475 20.4047 9.23637 16.986 9.23637H13.9718H13.6218V9.58637V21.3696V21.7196H13.9718H16.986C25.5363 21.7196 30.7889 24.8256 33.45 27.0369Z" fill="#EA4D27" stroke="#0E121C" stroke-width="0.7"/>
</svg>
