<svg width="424" height="218" viewBox="0 0 424 218" fill="none" xmlns="http://www.w3.org/2000/svg">
<path fill-rule="evenodd" clip-rule="evenodd" d="M212.838 1.12359L213.386 0L213.956 1.11258L238.49 49L239.002 50H237.878H236.502V81.5H260.838H261.256L261.33 81.9113L264.494 99.4674L264.502 99.5114V99.5561V109H263.502V99.6008L263.394 99H248.002L248.002 109.5H263.622H263.922L264.063 109.764L270.443 121.701L270.514 121.834L273.095 121.83L273.097 122.83L271.002 122.833V131.338L272.146 131.826L271.754 132.746L270.502 132.212V160.646L271.698 160.973L271.435 161.938L270.002 161.546V217V218H269.002H243.002H242.002L227.001 218H226.001H201.001H200.001L186.002 218H185.002H158.002H157.002V217V162.122L155.687 162.498L155.275 161.056L156.502 160.705V131.589L155.277 131.939L155.002 130.978L157.002 130.406L157.002 123.997L154.331 124.088L154.297 123.088L156.478 123.015L156.521 122.864L160.202 109.864L160.305 109.5H160.683H179.823H180.002V99H161.61L161.502 99.6007V109H160.502V99.5561V99.5114L160.51 99.4675L163.668 81.9115L163.742 81.5H164.16H191.002V82.5H164.578L161.79 98H180.002V98.6219L191.502 90.1136V50H190.115H189.002L189.49 49L212.838 1.12359ZM248.002 98.6219L248.002 98H263.214L260.42 82.5H236.502V90.4667L248.002 98.6219ZM190.602 49L213.408 2.23618L237.366 49H190.602ZM235.502 91V90.9835L213.294 75.2347L181.002 99.126V121.5C191.694 121.502 201.861 121.529 212.002 121.556V109C212.002 108.448 212.45 108 213.002 108C213.554 108 214.002 108.448 214.002 109V121.562C224.794 121.591 235.593 121.621 247.002 121.621V99.1387L235.525 91H235.502ZM235.502 50.5V89.7575L213.282 74L192.502 89.3738V50.5H235.502ZM213.802 109V121.561L213.571 121.561H213.569H213.567H213.565H213.565L212.202 121.557V109C212.202 108.558 212.56 108.2 213.002 108.2C213.444 108.2 213.802 108.558 213.802 109ZM268.427 122.436H249.592L270.002 130.889V122.835L268.427 122.837L268.427 122.436ZM158.997 123.93L158.002 123.964L158.002 130.12L158.423 130L158.499 130.264L176.934 122.572L158.98 123.408L158.997 123.93ZM158.002 132H157.502V160.42L158.696 160.078L158.741 160.235L185.002 153.773V153V134.178L213.388 123L243.002 134.178V153V154H242.002H241.971L268.21 160.237L268.265 160.035L269.502 160.373V131.786L268.481 131.35L268.484 131.343L248.002 122.86V123H247.002H213.388H181.002H180.002V122.5L179.702 122.5L158.002 131.555V132ZM158.002 217V161.837L159.108 161.521L159.016 161.198L188.263 154H237.647L269.002 161.453V217H243.002V180.532L213.142 161L185.002 180.532V217H158.002ZM226.001 217V195.5C226.001 188.596 220.405 183 213.501 183C206.598 183 201.001 188.596 201.001 195.5V217H226.001ZM200.001 195.5V217L186.002 217V181.056L213.158 162.206L242.002 181.073V217L227.001 217V195.5C227.001 188.044 220.957 182 213.501 182C206.045 182 200.001 188.044 200.001 195.5ZM233.44 153H192.327L212.528 148.029L233.44 153ZM212.524 147L214.502 147.47V135.5C214.502 134.395 213.607 133.5 212.502 133.5C211.398 133.5 210.502 134.395 210.502 135.5V147.497L212.524 147ZM215.002 147.5V147.589L237.764 153H242.002V134.87L213.395 124.072L186.002 134.859V153H188.142L210.002 147.621V147.5V135.5C210.002 134.119 211.121 133 212.502 133C213.883 133 215.002 134.119 215.002 135.5V147.5ZM254.502 194.5V199.5H256.502V194.5C256.502 193.948 256.054 193.5 255.502 193.5C254.95 193.5 254.502 193.948 254.502 194.5ZM257.002 194.5C257.002 193.672 256.331 193 255.502 193C254.674 193 254.002 193.672 254.002 194.5V199.5V200H254.502H256.502H257.002V199.5V194.5ZM157.672 122.468L161.061 110.5H179.323V115.673V121.459L157.672 122.468ZM248.049 115.673V110.5H263.322L269.168 121.436H248.049V115.673ZM171.502 187.5H170.502V190.5H171.502V187.5ZM170.502 187H170.002V187.5V190.5V191H170.502H171.502H172.002V190.5V187.5V187H171.502H170.502ZM183.502 163.5H184.502V164.5H183.502V163.5ZM183.002 163H183.502H184.502H185.002V163.5V164.5V165H184.502H183.502H183.002V164.5V163.5V163ZM174.502 190.5H173.502V193.5H174.502V190.5ZM173.502 190H173.002V190.5V193.5V194H173.502H174.502H175.002V193.5V190.5V190H174.502H173.502Z" fill="white"/>
<rect x="186" y="147" width="56" height="11" fill="#352420"/>
<line x1="210" y1="146.75" x2="215" y2="146.75" stroke="white" stroke-width="0.5"/>
<path d="M211.25 61.5C211.25 60.2574 212.257 59.25 213.5 59.25C214.743 59.25 215.75 60.2574 215.75 61.5V71.75H211.25V61.5Z" stroke="white" stroke-width="0.5"/>
<path d="M231.25 59.5248C231.25 59.0481 231.586 58.6377 232.054 58.5442C232.673 58.4204 233.25 58.8937 233.25 59.5248V70.795L231.25 71.195V59.5248Z" stroke="white" stroke-width="0.5"/>
<path d="M196.75 59.7815C196.75 59.1733 196.312 58.6533 195.713 58.5498C194.949 58.4177 194.25 59.006 194.25 59.7815V71.271L196.75 71.7031V59.7815Z" stroke="white" stroke-width="0.5"/>
<line x1="170.639" y1="82.03" x2="167.148" y2="99.1417" stroke="white" stroke-width="0.3"/>
<line x1="166.639" y1="82.03" x2="163.148" y2="99.1417" stroke="white" stroke-width="0.3"/>
<line x1="174.639" y1="82.03" x2="171.148" y2="99.1417" stroke="white" stroke-width="0.3"/>
<line x1="179.308" y1="81.9668" x2="176.147" y2="99.0273" stroke="white" stroke-width="0.3"/>
<line x1="183.125" y1="81.932" x2="180.659" y2="99.1105" stroke="white" stroke-width="0.3"/>
<line x1="186.641" y1="82.0159" x2="185.151" y2="96.0159" stroke="white" stroke-width="0.3"/>
<line x1="189.642" y1="82.0073" x2="189.152" y2="92.0073" stroke="white" stroke-width="0.3"/>
<line y1="-0.15" x2="17.5334" y2="-0.15" transform="matrix(0.217975 0.975954 0.983075 -0.183206 254 82.0894)" stroke="white" stroke-width="0.3"/>
<line y1="-0.15" x2="17.5334" y2="-0.15" transform="matrix(0.217975 0.975954 0.983075 -0.183206 258 82.0894)" stroke="white" stroke-width="0.3"/>
<line y1="-0.15" x2="17.4078" y2="-0.15" transform="matrix(0.198736 0.980053 0.985986 -0.16683 250 82.0288)" stroke="white" stroke-width="0.3"/>
<line y1="-0.15" x2="17.3893" y2="-0.15" transform="matrix(0.155241 0.987877 0.991513 -0.13001 246 82)" stroke="white" stroke-width="0.3"/>
<line y1="-0.15" x2="14.0947" y2="-0.15" transform="matrix(0.115747 0.993279 0.995306 -0.0967767 242.285 82.0894)" stroke="white" stroke-width="0.3"/>
<line y1="-0.15" x2="10.0134" y2="-0.15" transform="matrix(0.0535909 0.998563 0.998999 -0.0447359 239 82.0894)" stroke="white" stroke-width="0.3"/>
<path d="M1 182C9 174.833 30.5 160 52.5 158C80 155.5 95.5 152 105 147.5C114.5 143 122.5 138.5 129 136.5C134.2 134.9 150.5 129.833 157 128" stroke="white" stroke-width="0.3"/>
<path d="M70 156C84.3493 146.606 92.3413 128.545 101.06 113.273L103.784 116M106.509 118.727L103.784 116M103.784 116C105.964 112.364 111.304 103.273 115.228 96C114.864 96.303 118.061 99.6364 133.754 110.545C143.345 117.091 155.914 110.848 161 106.909" stroke="white" stroke-width="0.3"/>
<path d="M192.5 82C193.5 82.6667 196.2 84 199 84" stroke="white" stroke-width="0.3"/>
<path d="M226.5 83.5C228.333 83.6667 232.7 83.3 235.5 80.5" stroke="white" stroke-width="0.3"/>
<line x1="213.137" y1="3.06215" x2="192.136" y2="49.1885" stroke="white" stroke-width="0.3"/>
<line x1="213.141" y1="3.05187" x2="196.14" y2="49.1782" stroke="white" stroke-width="0.3"/>
<line x1="213.146" y1="3.0348" x2="202.146" y2="49.1612" stroke="white" stroke-width="0.3"/>
<line x1="213.149" y1="3.01296" x2="209.149" y2="49.1393" stroke="white" stroke-width="0.3"/>
<line x1="214.149" y1="2.98704" x2="218.149" y2="49.1134" stroke="white" stroke-width="0.3"/>
<line x1="214.146" y1="2.96521" x2="225.146" y2="49.0916" stroke="white" stroke-width="0.3"/>
<line x1="214.14" y1="3.94712" x2="231.14" y2="49.0735" stroke="white" stroke-width="0.3"/>
<line x1="215.137" y1="3.93922" x2="235.137" y2="49.0656" stroke="white" stroke-width="0.3"/>
<path d="M267.5 113.5C281 114.167 313.4 118.4 335 130C362 144.5 367.5 148.5 382 151C393.6 153 414.5 157.167 423.5 159" stroke="white" stroke-width="0.3"/>
<path d="M297.5 117.5C286 112.5 284.4 104.2 264 103" stroke="white" stroke-width="0.3"/>
<path d="M283.5 107.5L319 75C328 87.5 353.2 115.3 382 126.5C391.833 130.667 413 139.1 419 139.5" stroke="white" stroke-width="0.3"/>
<path d="M320 106C324.5 105 326.5 98.4998 330.5 101C334.5 103.5 333 108.5 353 119.5" stroke="white" stroke-width="0.3"/>
<line x1="163.143" y1="110.107" x2="159.143" y2="123.107" stroke="white" stroke-width="0.3"/>
<line x1="166.143" y1="110.107" x2="162.143" y2="123.107" stroke="white" stroke-width="0.3"/>
<line x1="168.93" y1="110.039" x2="165.359" y2="123.164" stroke="white" stroke-width="0.3"/>
<line x1="171.146" y1="110.096" x2="168.146" y2="123.096" stroke="white" stroke-width="0.3"/>
<line x1="173.148" y1="110.085" x2="171.148" y2="123.085" stroke="white" stroke-width="0.3"/>
<line x1="175.45" y1="110.11" x2="173.847" y2="123.05" stroke="white" stroke-width="0.3"/>
<line x1="178.15" y1="110.074" x2="177.15" y2="123.074" stroke="white" stroke-width="0.3"/>
<line x1="262.283" y1="110.477" x2="267.138" y2="122.004" stroke="white" stroke-width="0.3"/>
<line x1="259.86" y1="110.298" x2="264.139" y2="122.011" stroke="white" stroke-width="0.3"/>
<line x1="257.875" y1="110.023" x2="261.145" y2="122.023" stroke="white" stroke-width="0.3"/>
<line x1="255.78" y1="110.095" x2="258.149" y2="122.033" stroke="white" stroke-width="0.3"/>
<line x1="253.147" y1="110.035" x2="255.411" y2="121.973" stroke="white" stroke-width="0.3"/>
<line x1="251.149" y1="110.044" x2="252.592" y2="121.952" stroke="white" stroke-width="0.3"/>
<line y1="-0.15" x2="13.0345" y2="-0.15" transform="matrix(0.0726818 0.997355 0.99672 -0.0809302 249 110.124)" stroke="white" stroke-width="0.3"/>
<rect x="181" y="121" width="66" height="2" fill="#352321"/>
<path d="M252.75 137.5C252.75 136.81 252.19 136.25 251.5 136.25C250.81 136.25 250.25 136.81 250.25 137.5V146.75H252.75V137.5Z" stroke="white" stroke-width="0.5"/>
<path d="M176.75 137.5C176.75 136.81 176.19 136.25 175.5 136.25C174.81 136.25 174.25 136.81 174.25 137.5V146.75H176.75V137.5Z" stroke="white" stroke-width="0.5"/>
</svg>
