<svg width="9" height="18" viewBox="0 0 9 18" fill="none" xmlns="http://www.w3.org/2000/svg">
<path d="M2.5099 6.97227H3.0099V6.47227V4.42982C3.0099 3.17959 3.37309 2.20065 3.9681 1.5405C4.55825 0.885731 5.41563 0.500101 6.50197 0.5C6.50211 0.5 6.50225 0.5 6.5024 0.5L8.5 0.503466V2.98572L7.20655 2.98622C7.20648 2.98622 7.20642 2.98622 7.20635 2.98622C6.65634 2.98625 6.16588 3.09876 5.85033 3.48525C5.5573 3.84414 5.52061 4.32341 5.52061 4.74086V6.47227V6.97227H6.02061H8.39882L8.39787 9.66579H6.02061H5.52061V10.1658V17.5H3.0099V10.1658V9.66579H2.5099H0.5V6.97227H2.5099ZM8.66074 2.98566H8.66055H8.66074Z" stroke="white"/>
</svg>
