<svg width="530" height="141" viewBox="0 0 530 141" fill="none" xmlns="http://www.w3.org/2000/svg">
<path d="M42.445 20.27H53.69L44.85 62H31.785L27.17 37.105L22.555 62H9.49L0.65 20.27H12.48L15.99 48.35L21.58 20.27H32.695L38.285 48.35L42.445 20.27ZM72.8609 53.875H87.0959V62H61.4859V20.27H86.5109V28.395H72.8609V36.91H84.6259V45.035H72.8609V53.875ZM136.068 40.68L144.258 62H132.038L124.238 40.68L131.973 20.27H144.193L136.068 40.68ZM112.798 62V20.27H124.173V62H112.798ZM170.861 20.27H181.261V62H171.511L162.216 40.095V62H151.816V20.27H161.566L170.861 42.565V20.27ZM200.384 20.27H210.004C216.374 20.27 219.559 22.9567 219.559 28.33V53.94C219.559 59.3133 216.374 62 210.004 62H200.384C194.014 62 190.829 59.3133 190.829 53.94V28.33C190.829 22.9567 194.014 20.27 200.384 20.27ZM208.184 52.445V29.825C208.184 28.8717 207.642 28.395 206.559 28.395H203.829C202.745 28.395 202.204 28.8717 202.204 29.825V52.445C202.204 53.3983 202.745 53.875 203.829 53.875H206.559C207.642 53.875 208.184 53.3983 208.184 52.445ZM268.934 20.27H280.179L271.339 62H258.274L253.659 37.105L249.044 62H235.979L227.139 20.27H238.969L242.479 48.35L248.069 20.27H259.184L264.774 48.35L268.934 20.27ZM326.793 62L325.493 55.76H315.483L314.118 62H302.938L313.663 20.27H327.508L338.233 62H326.793ZM317.238 47.7H323.738L320.553 32.685L317.238 47.7ZM356.756 53.875H369.691V62H345.381V20.27H356.756V53.875ZM388.22 53.875H401.155V62H376.845V20.27H388.22V53.875ZM3.25 99.27H22.425C28.795 99.27 31.98 101.957 31.98 107.33V132.94C31.98 138.313 28.795 141 22.425 141H3.25V99.27ZM20.605 132.095V108.175C20.605 107.222 20.0633 106.745 18.98 106.745H14.625V133.525H18.98C20.0633 133.525 20.605 133.048 20.605 132.095ZM44.8043 99.27H56.1793V141H44.8043V99.27ZM97.1867 113.57H85.8117V108.175C85.8117 107.222 85.27 106.745 84.1867 106.745H81.8467C80.7633 106.745 80.2217 107.222 80.2217 108.175V132.095C80.2217 133.048 80.7633 133.525 81.8467 133.525H84.1867C85.27 133.525 85.8117 133.048 85.8117 132.095V125.14H82.5617V117.925H97.1867V132.94C97.1867 138.313 94.0017 141 87.6317 141H78.4017C72.0317 141 68.8467 138.313 68.8467 132.94V107.33C68.8467 101.957 72.0317 99.27 78.4017 99.27H87.6317C94.0017 99.27 97.1867 101.957 97.1867 107.33V113.57ZM109.535 99.27H120.91V141H109.535V99.27ZM159.058 99.27V107.395H150.998V141H139.623V107.395H131.628V99.27H159.058ZM191.014 141L189.714 134.76H179.704L178.339 141H167.159L177.884 99.27H191.729L202.454 141H191.014ZM181.459 126.7H187.959L184.774 111.685L181.459 126.7ZM224.227 132.875H237.162V141H212.852V99.27H224.227V132.875ZM293.404 107.395H279.754V117.535H291.584V125.01H279.754V141H268.379V99.27H293.404V107.395ZM322.162 99.27H333.537V132.94C333.537 138.313 330.352 141 323.982 141H314.362C307.992 141 304.807 138.313 304.807 132.94V99.27H316.182V131.445C316.182 132.398 316.724 132.875 317.807 132.875H320.537C321.62 132.875 322.162 132.398 322.162 131.445V99.27ZM405.547 99.27H416.922V132.94C416.922 138.313 413.737 141 407.367 141H397.747C391.377 141 388.192 138.313 388.192 132.94V99.27H399.567V131.445C399.567 132.398 400.109 132.875 401.192 132.875H403.922C405.006 132.875 405.547 132.398 405.547 131.445V99.27ZM441.327 126.18V141H429.952V99.27H449.257C455.627 99.27 458.812 101.957 458.812 107.33V118.12C458.812 122.237 456.949 124.772 453.222 125.725L460.892 141H448.672L442.042 126.18H441.327ZM445.812 107.395H441.327V118.445H445.812C446.895 118.445 447.437 117.968 447.437 117.015V108.825C447.437 107.872 446.895 107.395 445.812 107.395ZM482.516 132.875H496.751V141H471.141V99.27H496.166V107.395H482.516V115.91H494.281V124.035H482.516V132.875Z" fill="white"/>
<rect x="352" y="85" width="12" height="56" fill="white"/>
<rect x="4" y="85" width="3" height="493" transform="rotate(-90 4 85)" fill="white"/>
<path d="M450.1 38.1H452.84V48H450.06V47.02C449.86 47.6733 449.333 48 448.48 48H448C446.44 48 445.66 47.26 445.66 45.78V40.32C445.66 38.84 446.44 38.1 448 38.1H448.48C449.373 38.1 449.913 38.4733 450.1 39.22V38.1ZM449 45.9H449.46C449.86 45.9 450.06 45.6867 450.06 45.26V40.84C450.06 40.4133 449.86 40.2 449.46 40.2H449C448.64 40.2 448.46 40.3667 448.46 40.7V45.4C448.46 45.7333 448.64 45.9 449 45.9ZM460.252 38.1H460.752C462.312 38.1 463.092 38.8333 463.092 40.3V45.78C463.092 47.26 462.312 48 460.752 48H460.252C459.372 48 458.839 47.6267 458.652 46.88V48H455.912V34.62H458.692V39.08C458.892 38.4267 459.412 38.1 460.252 38.1ZM460.292 45.4V40.7C460.292 40.5133 460.252 40.3867 460.172 40.32C460.092 40.24 459.952 40.2 459.752 40.2H459.272C458.885 40.2 458.692 40.4133 458.692 40.84V45.26C458.692 45.6867 458.885 45.9 459.272 45.9H459.752C460.112 45.9 460.292 45.7333 460.292 45.4ZM468.344 38.1H470.724C471.604 38.1 472.23 38.2933 472.604 38.68C472.99 39.0533 473.184 39.6 473.184 40.32V45.78C473.184 46.5 472.99 47.0533 472.604 47.44C472.23 47.8133 471.604 48 470.724 48H468.344C467.464 48 466.83 47.8133 466.444 47.44C466.07 47.0533 465.884 46.5 465.884 45.78V40.32C465.884 39.6 466.07 39.0533 466.444 38.68C466.83 38.2933 467.464 38.1 468.344 38.1ZM470.444 45.5V40.6C470.444 40.2667 470.264 40.1 469.904 40.1H469.164C468.804 40.1 468.624 40.2667 468.624 40.6V45.5C468.624 45.8333 468.804 46 469.164 46H469.904C470.264 46 470.444 45.8333 470.444 45.5ZM480.493 38.1H483.273V48H480.533V46.88C480.346 47.6267 479.806 48 478.913 48H478.433C476.873 48 476.093 47.26 476.093 45.78V38.1H478.893V45.4C478.893 45.7333 479.073 45.9 479.433 45.9H479.893C480.293 45.9 480.493 45.6867 480.493 45.26V38.1ZM490.742 40.2H489.442V45.38C489.442 45.7 489.622 45.86 489.982 45.86H490.742V48H489.182C487.502 48 486.662 47.26 486.662 45.78V40.2H485.622V38.1H486.662V36.26H489.442V38.1H490.742V40.2Z" fill="white"/>
<line y1="11" x2="87" y2="11" stroke="#EA4D27" stroke-width="2"/>
</svg>
