<svg width="16" height="17" viewBox="0 0 16 17" fill="none" xmlns="http://www.w3.org/2000/svg">
<path fill-rule="evenodd" clip-rule="evenodd" d="M12.6661 5.11538C13.6838 5.11538 14.4994 4.30086 14.4994 3.30769C14.4994 2.31453 13.6838 1.5 12.6661 1.5C11.6484 1.5 10.8328 2.31453 10.8328 3.30769C10.8328 4.30086 11.6484 5.11538 12.6661 5.11538ZM12.6661 5.61538C13.9548 5.61538 14.9994 4.5822 14.9994 3.30769C14.9994 2.03319 13.9548 1 12.6661 1C11.3774 1 10.3328 2.03319 10.3328 3.30769C10.3328 3.87879 10.5425 4.40143 10.89 4.80437L5.13513 7.61023C4.70718 7.09646 4.05893 6.7689 3.33333 6.7689C2.04467 6.7689 1 7.80209 1 9.07659C1 10.3511 2.04467 11.3843 3.33333 11.3843C4.19545 11.3843 4.94836 10.9219 5.35234 10.2341L10.6281 12.568C10.44 12.9007 10.3328 13.2843 10.3328 13.6926C10.3328 14.9671 11.3774 16.0003 12.6661 16.0003C13.9548 16.0003 14.9994 14.9671 14.9994 13.6926C14.9994 12.4181 13.9548 11.3849 12.6661 11.3849C11.9753 11.3849 11.3546 11.6818 10.9273 12.1536L5.55696 9.77794C5.62821 9.55677 5.66667 9.32112 5.66667 9.07659C5.66667 8.70006 5.57549 8.3446 5.41378 8.03061L11.2851 5.16798C11.6718 5.44923 12.1493 5.61538 12.6661 5.61538ZM5.09621 9.57412C5.14211 9.41587 5.16667 9.24892 5.16667 9.07659C5.16667 8.77935 5.09362 8.49812 4.96395 8.24993L4.69141 8.38281L4.46835 7.93532L4.66843 7.83777C4.33491 7.48812 3.86132 7.2689 3.33333 7.2689C2.31559 7.2689 1.5 8.08343 1.5 9.07659C1.5 10.0698 2.31559 10.8843 3.33333 10.8843C3.99334 10.8843 4.56833 10.5417 4.891 10.0301L4.62476 9.91228L4.83079 9.45671L5.09621 9.57412ZM11.0884 12.7716L11.3603 12.8919L11.5664 12.4363L11.4163 12.3699C11.743 12.0694 12.1817 11.8849 12.6661 11.8849C13.6838 11.8849 14.4994 12.6994 14.4994 13.6926C14.4994 14.6857 13.6838 15.5003 12.6661 15.5003C11.6484 15.5003 10.8328 14.6857 10.8328 13.6926C10.8328 13.357 10.9259 13.0418 11.0884 12.7716Z" fill="black"/>
<path d="M10.89 4.80437L10.9996 5.02909L11.2912 4.88687L11.0793 4.64111L10.89 4.80437ZM5.13513 7.61023L4.94304 7.77023L5.0685 7.92085L5.24469 7.83494L5.13513 7.61023ZM5.35234 10.2341L5.45348 10.0055L5.24966 9.91535L5.13678 10.1075L5.35234 10.2341ZM10.6281 12.568L10.8457 12.691L10.9815 12.4509L10.7292 12.3393L10.6281 12.568ZM10.9273 12.1536L10.8262 12.3823L10.9914 12.4553L11.1127 12.3214L10.9273 12.1536ZM5.55696 9.77794L5.319 9.70127L5.24998 9.91551L5.45582 10.0066L5.55696 9.77794ZM5.41378 8.03061L5.30422 7.8059L5.07451 7.91789L5.19152 8.14508L5.41378 8.03061ZM11.2851 5.16798L11.4321 4.9658L11.3106 4.87741L11.1755 4.94327L11.2851 5.16798ZM5.09621 9.57412L4.99507 9.80275L5.25663 9.91845L5.33631 9.64377L5.09621 9.57412ZM4.96395 8.24993L5.18554 8.13417L5.07295 7.91865L4.85439 8.02521L4.96395 8.24993ZM4.69141 8.38281L4.46766 8.49434L4.57822 8.71613L4.80097 8.60753L4.69141 8.38281ZM4.46835 7.93532L4.35879 7.71061L4.1321 7.82114L4.24461 8.04685L4.46835 7.93532ZM4.66843 7.83777L4.77799 8.06249L5.08534 7.91264L4.84933 7.66522L4.66843 7.83777ZM4.891 10.0301L5.10246 10.1634L5.25688 9.91855L4.99214 9.80143L4.891 10.0301ZM4.62476 9.91228L4.39697 9.80926L4.2931 10.0389L4.52362 10.1409L4.62476 9.91228ZM4.83079 9.45671L4.93193 9.22808L4.70518 9.12777L4.603 9.35369L4.83079 9.45671ZM11.3603 12.8919L11.2592 13.1205L11.4859 13.2208L11.5881 12.9949L11.3603 12.8919ZM11.0884 12.7716L11.1896 12.543L10.9879 12.4537L10.8742 12.6427L11.0884 12.7716ZM11.5664 12.4363L11.7942 12.5393L11.898 12.3097L11.6675 12.2077L11.5664 12.4363ZM11.4163 12.3699L11.2471 12.186L10.9663 12.4442L11.3152 12.5986L11.4163 12.3699ZM14.2494 3.30769C14.2494 4.16041 13.5482 4.86538 12.6661 4.86538V5.36538C13.8195 5.36538 14.7494 4.44131 14.7494 3.30769H14.2494ZM12.6661 1.75C13.5482 1.75 14.2494 2.45498 14.2494 3.30769H14.7494C14.7494 2.17407 13.8195 1.25 12.6661 1.25V1.75ZM11.0828 3.30769C11.0828 2.45498 11.784 1.75 12.6661 1.75V1.25C11.5127 1.25 10.5828 2.17407 10.5828 3.30769H11.0828ZM12.6661 4.86538C11.784 4.86538 11.0828 4.16041 11.0828 3.30769H10.5828C10.5828 4.44131 11.5127 5.36538 12.6661 5.36538V4.86538ZM14.7494 3.30769C14.7494 4.44153 13.8193 5.36538 12.6661 5.36538V5.86538C14.0902 5.86538 15.2494 4.72286 15.2494 3.30769H14.7494ZM12.6661 1.25C13.8193 1.25 14.7494 2.17386 14.7494 3.30769H15.2494C15.2494 1.89252 14.0902 0.75 12.6661 0.75V1.25ZM10.5828 3.30769C10.5828 2.17386 11.5129 1.25 12.6661 1.25V0.75C11.242 0.75 10.0828 1.89252 10.0828 3.30769H10.5828ZM11.0793 4.64111C10.7693 4.2816 10.5828 3.81632 10.5828 3.30769H10.0828C10.0828 3.94125 10.3157 4.52126 10.7007 4.96764L11.0793 4.64111ZM5.24469 7.83494L10.9996 5.02909L10.7804 4.57966L5.02557 7.38551L5.24469 7.83494ZM3.33333 7.0189C3.98216 7.0189 4.56092 7.31149 4.94304 7.77023L5.32722 7.45022C4.85343 6.88143 4.13571 6.5189 3.33333 6.5189V7.0189ZM1.25 9.07659C1.25 7.94276 2.18013 7.0189 3.33333 7.0189V6.5189C1.90921 6.5189 0.75 7.66142 0.75 9.07659H1.25ZM3.33333 11.1343C2.18013 11.1343 1.25 10.2104 1.25 9.07659H0.75C0.75 10.4918 1.90921 11.6343 3.33333 11.6343V11.1343ZM5.13678 10.1075C4.77632 10.7212 4.10411 11.1343 3.33333 11.1343V11.6343C4.28679 11.6343 5.12041 11.1226 5.5679 10.3608L5.13678 10.1075ZM10.7292 12.3393L5.45348 10.0055L5.2512 10.4628L10.527 12.7966L10.7292 12.3393ZM10.5828 13.6926C10.5828 13.3286 10.6782 12.9873 10.8457 12.691L10.4105 12.4449C10.2017 12.8141 10.0828 13.2399 10.0828 13.6926H10.5828ZM12.6661 15.7503C11.5129 15.7503 10.5828 14.8264 10.5828 13.6926H10.0828C10.0828 15.1077 11.242 16.2503 12.6661 16.2503V15.7503ZM14.7494 13.6926C14.7494 14.8264 13.8193 15.7503 12.6661 15.7503V16.2503C14.0902 16.2503 15.2494 15.1077 15.2494 13.6926H14.7494ZM12.6661 11.6349C13.8193 11.6349 14.7494 12.5587 14.7494 13.6926H15.2494C15.2494 12.2774 14.0902 11.1349 12.6661 11.1349V11.6349ZM11.1127 12.3214C11.4942 11.9001 12.0483 11.6349 12.6661 11.6349V11.1349C11.9022 11.1349 11.215 11.4635 10.742 11.9858L11.1127 12.3214ZM5.45582 10.0066L10.8262 12.3823L11.0285 11.925L5.65809 9.54931L5.45582 10.0066ZM5.41667 9.07659C5.41667 9.29476 5.38238 9.50456 5.319 9.70127L5.79491 9.8546C5.87404 9.60898 5.91667 9.34748 5.91667 9.07659H5.41667ZM5.19152 8.14508C5.33547 8.42457 5.41667 8.74089 5.41667 9.07659H5.91667C5.91667 8.65924 5.81551 8.26463 5.63603 7.91614L5.19152 8.14508ZM11.1755 4.94327L5.30422 7.8059L5.52334 8.25533L11.3947 5.39269L11.1755 4.94327ZM12.6661 5.36538C12.2037 5.36538 11.7774 5.21689 11.4321 4.9658L11.138 5.37016C11.5662 5.68156 12.0949 5.86538 12.6661 5.86538V5.36538ZM5.33631 9.64377C5.3887 9.46316 5.41667 9.27278 5.41667 9.07659H4.91667C4.91667 9.22506 4.89553 9.36857 4.85611 9.50447L5.33631 9.64377ZM5.41667 9.07659C5.41667 8.73794 5.33335 8.4171 5.18554 8.13417L4.74237 8.36569C4.85388 8.57914 4.91667 8.82077 4.91667 9.07659H5.41667ZM4.85439 8.02521L4.58184 8.1581L4.80097 8.60753L5.07352 8.47464L4.85439 8.02521ZM4.91515 8.27129L4.6921 7.8238L4.24461 8.04685L4.46766 8.49434L4.91515 8.27129ZM4.57791 8.16004L4.77799 8.06249L4.55887 7.61306L4.35879 7.71061L4.57791 8.16004ZM4.84933 7.66522C4.47025 7.2678 3.93199 7.0189 3.33333 7.0189V7.5189C3.79066 7.5189 4.19957 7.70844 4.48753 8.01033L4.84933 7.66522ZM3.33333 7.0189C2.17991 7.0189 1.25 7.94297 1.25 9.07659H1.75C1.75 8.22388 2.45127 7.5189 3.33333 7.5189V7.0189ZM1.25 9.07659C1.25 10.2102 2.17991 11.1343 3.33333 11.1343V10.6343C2.45127 10.6343 1.75 9.92931 1.75 9.07659H1.25ZM3.33333 11.1343C4.08194 11.1343 4.73549 10.7453 5.10246 10.1634L4.67954 9.89671C4.40116 10.3381 3.90474 10.6343 3.33333 10.6343V11.1343ZM4.99214 9.80143L4.72589 9.68365L4.52362 10.1409L4.78986 10.2587L4.99214 9.80143ZM4.85254 10.0153L5.05858 9.55972L4.603 9.35369L4.39697 9.80926L4.85254 10.0153ZM4.72965 9.68534L4.99507 9.80275L5.19735 9.34549L4.93193 9.22808L4.72965 9.68534ZM11.4615 12.6633L11.1896 12.543L10.9873 13.0002L11.2592 13.1205L11.4615 12.6633ZM11.3386 12.3333L11.1325 12.7889L11.5881 12.9949L11.7942 12.5393L11.3386 12.3333ZM11.3152 12.5986L11.4652 12.6649L11.6675 12.2077L11.5175 12.1413L11.3152 12.5986ZM11.5856 12.5539C11.8676 12.2945 12.2464 12.1349 12.6661 12.1349V11.6349C12.1169 11.6349 11.6184 11.8444 11.2471 12.186L11.5856 12.5539ZM12.6661 12.1349C13.5482 12.1349 14.2494 12.8399 14.2494 13.6926H14.7494C14.7494 12.559 13.8195 11.6349 12.6661 11.6349V12.1349ZM14.2494 13.6926C14.2494 14.5453 13.5482 15.2503 12.6661 15.2503V15.7503C13.8195 15.7503 14.7494 14.8262 14.7494 13.6926H14.2494ZM12.6661 15.2503C11.784 15.2503 11.0828 14.5453 11.0828 13.6926H10.5828C10.5828 14.8262 11.5127 15.7503 12.6661 15.7503V15.2503ZM11.0828 13.6926C11.0828 13.4039 11.1627 13.1331 11.3026 12.9005L10.8742 12.6427C10.689 12.9506 10.5828 13.3102 10.5828 13.6926H11.0828Z" fill="#C6C6C6"/>
</svg>
