<!-- Generator: Adobe Illustrator 21.0.2, SVG Export Plug-In  -->
<svg version="1.1"
	 xmlns="http://www.w3.org/2000/svg" xmlns:xlink="http://www.w3.org/1999/xlink" xmlns:a="http://ns.adobe.com/AdobeSVGViewerExtensions/3.0/"
	 x="0px" y="0px" width="524.3px" height="50.4px" viewBox="0 0 524.3 50.4" style="enable-background:new 0 0 524.3 50.4;"
	 xml:space="preserve">
<style type="text/css">
	.st0{fill:#FFFFFF;}
</style>
<defs>
</defs>
<path class="st0" d="M0.7,50.4l16.2-38.2H0L5.2,0h47.6l-5.2,12.2H30.7L14.4,50.4H0.7z M35.4,50.4L56.8,0h13.7l-8,18.9h20.2l8-18.9
	h13.7L83,50.4H69.3l8.2-19.3H57.3l-8.2,19.3H35.4z M113.1,0h35c3.2,0,5.5,1.1,6.7,3.4s1.2,4.9-0.1,8.1l-4.6,10.9
	c-1.4,3.1-3.4,5.8-6.2,8.1c-2.8,2.2-6.1,3.4-10.1,3.4h-0.3l6.1,16.5h-15.8l-4.8-16.5h-6.6l-7,16.5H91.7L113.1,0z M135.5,22.3
	c0.6,0,1-0.3,1.3-0.9l3.5-8.3c0.3-0.6,0.1-0.9-0.5-0.9h-18.1l-4.3,10.1H135.5z M167.8,0h13.7l-21.4,50.4h-13.7L167.8,0z M190.2,0
	H204l-16.2,38.2h23.6l-5.2,12.2h-37.3L190.2,0z M231.8,0h13.7l-16.2,38.2h23.6l-5.2,12.2h-37.3L231.8,0z M272,34.4l-1.3,2.9
	c-0.2,0.6,0,0.9,0.6,0.9H288c0.6,0,1-0.3,1.3-0.9l2.4-5.6c0.3-0.6,0.1-0.9-0.5-0.9h-19.9c-3.2,0-5.5-1.1-6.8-3.3
	c-1.3-2.2-1.2-5,0.2-8.2l3.3-7.8c1.4-3.2,3.4-5.9,6.1-8.1c2.7-2.2,5.7-3.4,8.9-3.4h24.4c3.2,0,5.5,1.1,6.7,3.4
	c1.3,2.2,1.2,4.9-0.1,8.1l-1.9,4.5h-13.7l1.2-2.9c0.3-0.6,0.1-0.9-0.5-0.9h-16.7c-0.6,0-1,0.3-1.3,0.9l-2.4,5.6
	c-0.2,0.6,0,0.9,0.6,0.9H299c3.2,0,5.5,1.1,6.7,3.4c1.3,2.2,1.3,4.9-0.1,8.1l-3.3,7.8c-1.4,3.2-3.4,6-5.9,8.2
	c-2.6,2.2-5.5,3.3-8.7,3.3h-24.8c-3.2,0-5.5-1.1-6.8-3.3c-1.3-2.2-1.2-5,0.2-8.2l1.9-4.5H272z M316.5,50.4l16.2-38.2h-16.9L320.9,0
	h47.6l-5.2,12.2h-16.9l-16.2,38.2H316.5z M362.1,50.4c-3.2,0-5.5-1.1-6.8-3.3c-1.3-2.2-1.2-5,0.2-8.2l11.6-27.4
	c1.4-3.2,3.4-5.9,6.1-8.1c2.7-2.2,5.7-3.4,8.9-3.4H408c3.2,0,5.5,1.1,6.7,3.4c1.3,2.2,1.2,4.9-0.1,8.1l-11.6,27.4
	c-1.4,3.2-3.5,6-6.2,8.2c-2.7,2.2-5.6,3.3-8.8,3.3H362.1z M400.1,13.1c0.3-0.6,0.1-0.9-0.5-0.9h-18.1c-0.6,0-1,0.3-1.3,0.9
	l-10.3,24.2c-0.2,0.6,0,0.9,0.6,0.9h18.1c0.6,0,1-0.3,1.3-0.9L400.1,13.1z M427.6,0h35c3.2,0,5.5,1.1,6.7,3.4s1.2,4.9-0.1,8.1
	l-4.6,10.9c-1.4,3.1-3.4,5.8-6.2,8.1c-2.8,2.2-6.1,3.4-10.1,3.4H448l6.1,16.5h-15.8l-4.8-16.5h-6.7l-7,16.5h-13.7L427.6,0z
	 M450,22.3c0.6,0,1-0.3,1.3-0.9l3.5-8.3c0.3-0.6,0.1-0.9-0.5-0.9h-18.1l-4.3,10.1H450z M508.1,38.2l-5.2,12.2h-42L482.3,0h42
	l-5.2,12.2h-28.3l-3.4,7.9h25.1l-4.3,10.2h-25.1l-3.4,7.9H508.1z"/>
</svg>