<svg width="15" height="15" viewBox="0 0 15 15" fill="none" xmlns="http://www.w3.org/2000/svg">
<path fill-rule="evenodd" clip-rule="evenodd" d="M7.5 14C11.0899 14 14 11.0899 14 7.5C14 3.91015 11.0899 1 7.5 1C3.91015 1 1 3.91015 1 7.5C1 11.0899 3.91015 14 7.5 14ZM7.5 15C11.6421 15 15 11.6421 15 7.5C15 3.35786 11.6421 0 7.5 0C3.35786 0 0 3.35786 0 7.5C0 11.6421 3.35786 15 7.5 15ZM7.5 3C7.77614 3 8 3.22386 8 3.5V7.42988L11.1344 8.77803C11.3881 8.88714 11.5053 9.18123 11.3962 9.4349C11.2871 9.68858 10.993 9.80577 10.7393 9.69666L7.06479 8.11621C6.81112 8.0071 6.69392 7.71301 6.80303 7.45934C6.8453 7.36107 6.91532 7.28328 7 7.2312V3.5C7 3.22386 7.22386 3 7.5 3Z" fill="#C6C6C6"/>
</svg>
