<svg width="51" height="77" viewBox="0 0 51 77" fill="none" xmlns="http://www.w3.org/2000/svg">
<path d="M26.1838 25.0717C26.2855 25.7573 26.4987 26.3283 26.8653 26.917C27.7858 28.3968 29.4137 29.3608 31.1138 29.4337C31.1849 29.4372 31.256 29.4384 31.3271 29.4384C32.4803 29.4384 33.59 29.0383 34.4001 28.3239C35.1609 27.653 35.7125 26.6655 35.9945 25.4683C36.2353 24.4467 36.2618 23.4133 36.287 22.4134C36.2947 22.1138 36.082 21.853 35.7865 21.8007C32.9109 21.2932 30.1286 21.1216 27.1837 20.9407L27.0333 20.9313C26.8565 20.9178 26.6802 20.9853 26.5504 21.111C26.3742 21.2814 26.2602 21.4823 26.1703 22.8253C26.1456 23.2006 26.1286 23.5784 26.1198 23.8533C25.7326 23.9221 25.3308 23.9174 24.9443 23.8398C24.9449 23.5643 24.9407 23.183 24.9284 22.8047C24.8844 21.4588 24.7774 21.2544 24.6065 21.0781C24.4808 20.9483 24.3028 20.879 24.1306 20.8819L23.9779 20.886C21.0288 20.9683 18.2431 21.0458 15.3522 21.4565C15.0555 21.4988 14.834 21.752 14.8311 22.0522C14.8234 23.052 14.8152 24.086 15.0208 25.1146C15.2623 26.3213 15.7804 27.3264 16.5183 28.0226C17.3419 28.7992 18.5068 29.2427 19.7205 29.2427H19.7652C21.4665 29.2269 23.1261 28.3181 24.0966 26.87C24.4819 26.2948 24.714 25.732 24.8391 25.0518C25.08 25.0923 25.3244 25.1152 25.5693 25.1152C25.7755 25.1152 25.9806 25.1005 26.1838 25.0717ZM27.4439 22.1714C30.0529 22.333 32.5378 22.4963 35.0604 22.9075C35.0357 23.6783 34.987 24.4572 34.8143 25.1904C34.658 25.8536 34.3202 26.7783 33.5982 27.4145C32.9714 27.9673 32.0855 28.2634 31.1661 28.2223C29.8602 28.1665 28.6071 27.421 27.8951 26.2766C27.5033 25.6474 27.3494 25.087 27.3259 24.207C27.32 23.9808 27.3699 22.8006 27.4439 22.1714ZM23.7282 24.1465C23.6748 25.0247 23.502 25.5805 23.0896 26.1955C22.3389 27.3153 21.0611 28.0184 19.7552 28.0302C18.8382 28.0419 17.9587 27.7147 17.3507 27.1408C16.651 26.4805 16.3444 25.5452 16.2104 24.8773C16.063 24.1388 16.0407 23.3587 16.0412 22.5873C18.5762 22.2613 21.0652 22.1814 23.6783 22.108C23.7312 22.7395 23.7411 23.9203 23.7282 24.1465Z" fill="white"/>
<path d="M50.6373 65.7989C50.535 62.535 50.2666 59.0854 49.0094 55.9736C47.4415 52.0934 44.362 48.8864 40.5511 47.1587C40.3044 46.5395 40.0188 45.935 39.6905 45.3522C38.9021 43.9546 38.0262 42.9841 37.011 42.3855C35.9759 41.7751 34.7746 41.5813 33.7154 41.8539C33.2489 41.9737 32.9434 42.1975 32.7443 42.4754C31.8678 41.153 31.5171 39.5034 31.7979 37.9372C32.9499 37.1489 33.9944 36.1484 34.8527 34.9764C35.8678 33.5906 36.6539 31.961 37.1955 30.1492C37.2519 30.1516 37.3077 30.1563 37.3641 30.1563C38.5866 30.1563 39.7856 29.5623 40.4853 28.5895C41.279 27.4857 41.3777 25.9624 40.7303 24.7998C40.5752 24.5207 40.3966 24.2763 40.201 24.0643C42.2154 22.2243 42.7934 19.0456 41.538 16.6182C40.913 15.4097 39.9231 14.4692 38.9667 13.6444C40.6545 12.3984 42.065 10.8357 43.0807 9.0522C43.2123 8.8225 43.1788 8.53347 42.9979 8.33961C42.8175 8.14516 42.532 8.09052 42.2929 8.20508C41.0951 8.77727 39.8144 9.16323 38.5038 9.35239C40.3061 8.18393 41.8929 6.69353 43.1718 4.9564C43.3363 4.73199 43.328 4.42474 43.1506 4.21032C42.9738 3.99589 42.673 3.92951 42.4228 4.04935C41.3271 4.57161 40.3361 5.02161 39.2963 5.23721C38.163 5.47161 37.0939 5.36997 36.2837 4.95052C35.5565 4.57396 34.9831 3.93832 34.3763 3.26509C33.9979 2.84564 33.6061 2.41092 33.1614 2.02671C31.9659 0.991602 30.3909 0.323068 28.6074 0.0927819C27.1593 -0.0940319 25.5766 0.000549887 23.7708 0.382989C21.6794 0.824762 20.0374 1.50798 18.7509 2.47084C17.5219 3.38963 15.558 5.59262 15.5192 7.59C15.5163 7.73158 15.521 7.87316 15.5328 8.01533C15.4922 8.05527 15.4552 8.09875 15.4258 8.15044C14.6533 9.53275 13.3068 10.5702 12.005 11.5742C11.8282 11.7099 11.652 11.8462 11.4775 11.9825C9.93069 13.1909 8.27757 14.7036 7.74415 16.7609C7.34526 18.3012 7.62901 20.063 8.52313 21.5946C9.1664 22.6961 10.1063 23.6818 11.32 24.5325C10.8001 24.9079 10.3789 25.419 10.1228 26.0176C9.61346 27.2084 9.80556 28.6324 10.6122 29.6458C11.3136 30.5281 12.8316 30.8107 13.9619 30.8107C14.1128 30.8107 14.255 30.8048 14.3895 30.7954C14.9664 32.3422 15.7037 33.7251 16.6025 34.93C17.2834 35.8429 18.06 36.6472 18.9024 37.3298C18.903 37.3551 18.9019 37.3809 18.906 37.4068C19.1586 39.1456 18.8137 40.9439 17.9584 42.4707C17.7587 42.1952 17.4543 41.9731 16.9902 41.8539C15.9299 41.5813 14.7291 41.7751 13.6946 42.3855C12.6794 42.9841 11.8035 43.9546 11.0152 45.3522C10.6868 45.935 10.4007 46.5395 10.1545 47.1587C6.34364 48.8864 3.26415 52.0934 1.69621 55.9736C0.439032 59.0854 0.17056 62.535 0.0683417 65.7989C-0.018603 68.5841 -0.00332901 71.4115 0.0113577 74.1456C0.014295 74.6737 0.0184073 75.3969 0.437857 75.9932C1.12813 76.976 2.49281 76.9883 3.149 76.9948C3.54789 76.9983 3.94796 77.0001 4.34861 77.0001C6.62209 77.0001 8.91144 76.9455 11.1362 76.892C13.7427 76.8297 16.4386 76.7657 19.0834 76.7898H19.0887C19.1979 76.7898 19.2984 76.7592 19.3871 76.7087C23.4394 76.4273 27.5229 76.5983 31.4801 76.7733C31.5241 76.7833 31.5693 76.7898 31.6169 76.7898H31.6228C34.2682 76.7645 36.9629 76.8297 39.5694 76.892C41.7942 76.9455 44.0829 77.0001 46.357 77.0001C46.7571 77.0001 47.1577 76.9983 47.5566 76.9948C48.2128 76.9889 49.5775 76.976 50.2683 75.9932C50.6872 75.3969 50.6913 74.6737 50.6943 74.1456C50.7089 71.4115 50.7242 68.5841 50.6373 65.7989V65.7989ZM33.6149 44.3735C33.5638 43.3537 33.6313 43.1275 34.0173 43.0282C34.2282 42.9736 34.4514 42.9471 34.68 42.9471C35.2527 42.9471 35.8596 43.114 36.3948 43.43C37.2213 43.917 37.9533 44.7407 38.6342 45.9473C40.01 48.3888 40.6116 51.2263 40.3549 54.012C40.0952 53.8975 39.835 53.7582 39.5665 53.6143C39.2134 53.4246 38.8474 53.2289 38.4527 53.075C37.3447 52.6426 35.8202 52.6779 35.0924 53.7764C34.724 54.3322 34.69 54.986 34.6629 55.5106C34.398 60.5476 33.6554 65.5486 32.45 70.4399C32.5087 69.4758 32.5657 68.513 32.6215 67.5548C32.9082 62.5884 33.1561 57.5521 33.3588 52.5857C33.4598 50.0954 33.5515 47.5758 33.6313 45.0967C33.639 44.8546 33.6272 44.6102 33.6149 44.3735V44.3735ZM18.3062 45.6577C20.4146 46.7745 22.5999 47.7814 24.8141 48.6555C25.1519 48.7883 25.5984 48.9645 26.0924 48.9645C26.1623 48.9645 26.2334 48.961 26.3045 48.9534C26.9043 48.8899 27.379 48.5609 27.7608 48.2972L32.4188 45.0761C32.3818 46.2328 32.3413 47.3983 32.299 48.5651C32.1891 48.5651 32.0775 48.5932 31.9776 48.6561L26.6423 52.0011C26.3515 52.1838 26.0219 52.39 25.7264 52.4141C25.4897 52.4347 25.2194 52.3471 24.9169 52.2408C22.1758 51.2785 20.2918 50.3504 18.4237 49.0409C18.382 47.91 18.3426 46.7809 18.3062 45.6577V45.6577ZM39.5001 27.8816C39.0536 28.5031 38.3005 28.8956 37.5145 28.939C37.7912 27.7353 37.9686 26.4641 38.0379 25.1364C38.0514 24.872 38.0597 24.6077 38.0655 24.3439C38.7294 24.3169 39.2687 24.667 39.6705 25.389C40.0876 26.1374 40.0171 27.1626 39.5001 27.8816ZM40.4612 17.1751C41.4675 19.1219 40.967 21.7796 39.3209 23.2265C39.2786 23.2636 39.2452 23.3064 39.2158 23.3517C38.8592 23.1972 38.4732 23.1214 38.0679 23.1308C38.0144 20.3168 37.5797 17.5499 37.1268 14.9251C37.1209 14.8916 37.1103 14.8599 37.0997 14.8287C37.3805 14.6766 37.6561 14.5168 37.9257 14.3494C38.9062 15.183 39.8837 16.0595 40.4612 17.1751ZM19.477 3.44192C20.6196 2.58657 22.1065 1.97384 24.0216 1.56908C25.6918 1.21601 27.1416 1.12613 28.4523 1.29532C29.9991 1.49506 31.3532 2.0649 32.3683 2.94316C32.756 3.27919 33.1056 3.66691 33.4763 4.07755C34.1289 4.80072 34.8033 5.54915 35.7262 6.02735C37.0798 6.72819 38.5484 6.63067 39.5424 6.42447C39.8831 6.35398 40.2145 6.26351 40.5423 6.15659C39.1365 7.55652 37.4845 8.70207 35.6704 9.52452C35.4155 9.64025 35.2727 9.9146 35.325 10.1895C35.3767 10.4645 35.6105 10.6677 35.8896 10.6824C37.6073 10.7694 39.3345 10.5461 40.9717 10.0274C39.4643 11.9596 37.4076 13.5058 35.0307 14.468C32.2103 15.6101 28.9093 15.9126 25.7358 15.321C23.2638 14.8599 21.1283 13.8994 19.5616 12.5435C18.1293 11.3051 16.6989 9.30011 16.7318 7.6135C16.757 6.28583 18.1763 4.41417 19.477 3.44192V3.44192ZM12.589 23.9174C11.236 23.0826 10.2203 22.0957 9.57058 20.983C8.83625 19.7258 8.59832 18.2983 8.9179 17.0652C9.36026 15.3586 10.8377 14.021 12.2242 12.9377C12.3969 12.8032 12.5708 12.6686 12.7452 12.5341C13.879 11.6605 15.0434 10.7623 15.9199 9.60265C16.0086 9.82707 16.1091 10.0485 16.2207 10.2671C16.2201 10.2683 16.2189 10.2688 16.2177 10.2706C13.7422 13.8394 12.6048 18.6355 12.9696 23.8792C12.8516 23.8939 12.7341 23.9133 12.6183 23.9397C12.6084 23.9327 12.6001 23.9239 12.589 23.9174ZM11.5609 28.8909C11.0363 28.2317 10.9071 27.2689 11.2378 26.4946C11.5539 25.7556 12.2841 25.2022 13.0789 25.087C13.2604 26.7073 13.5647 28.2123 13.9865 29.6011C13.0472 29.6052 11.9181 29.3403 11.5609 28.8909ZM17.5742 34.2051C15.8124 31.8423 14.7044 28.7246 14.282 24.9372C13.7028 19.7435 14.6375 14.9668 16.9162 11.4115C17.4802 12.2128 18.144 12.9212 18.7679 13.4605C20.4974 14.9568 22.8302 16.0125 25.5132 16.513C26.6458 16.7239 27.7943 16.8285 28.9346 16.8285C31.2157 16.8285 33.4639 16.4102 35.4854 15.5919C35.6505 15.5249 35.8126 15.4538 35.9747 15.3821C36.507 18.4881 36.9969 21.7849 36.8266 25.0729C36.638 28.7029 35.6176 31.8799 33.874 34.2597C31.8719 36.9932 28.7736 38.6933 25.7881 38.6962C25.7858 38.6962 25.7834 38.6962 25.7811 38.6962C22.7856 38.6962 19.6415 36.9756 17.5742 34.2051ZM20.1925 38.2474C21.9255 39.3189 23.8548 39.9088 25.7811 39.9088H25.7899C27.3825 39.907 28.9998 39.4823 30.4978 38.7127C30.4261 40.5233 31.0224 42.3467 32.1809 43.752C32.1932 43.7666 32.2079 43.7772 32.2208 43.7907C32.1492 43.8078 32.0793 43.8366 32.0146 43.8806L27.0705 47.2997C26.7886 47.4947 26.4684 47.7162 26.1758 47.7473C25.915 47.7755 25.6066 47.6645 25.2588 47.527C22.8884 46.5918 20.5515 45.4997 18.3085 44.283C18.3115 44.2249 18.3138 44.1655 18.3156 44.1044C18.3538 44.0733 18.3884 44.0369 18.419 43.9952C19.6338 42.3403 20.2565 40.2918 20.1925 38.2474ZM14.3108 43.43C15.0598 42.9883 15.9493 42.8379 16.6883 43.0282C17.0743 43.1275 17.1418 43.3537 17.0907 44.3735C17.0784 44.6102 17.0666 44.8552 17.0743 45.0967C17.1542 47.5763 17.2458 50.096 17.3474 52.5857C17.5495 57.5527 17.7974 62.589 18.0841 67.5554C18.1399 68.5136 18.1969 69.4764 18.2556 70.4405C17.0502 65.5486 16.3076 60.5476 16.0427 55.5112C16.0156 54.986 15.9816 54.3322 15.6132 53.777C15.1568 53.0885 14.3884 52.8177 13.6053 52.8177C13.1388 52.8177 12.6671 52.9135 12.2535 53.075C11.8582 53.2289 11.4928 53.4246 11.1391 53.6143C10.8706 53.7582 10.6104 53.8975 10.3507 54.012C10.094 51.2263 10.6956 48.3888 12.072 45.9473C12.7517 44.7407 13.4843 43.917 14.3108 43.43V43.43ZM11.1074 75.6801C10.4694 75.6947 9.82554 75.7106 9.17874 75.7247C9.86548 70.3471 10.0411 64.8836 9.69629 59.4749C9.67456 59.1412 9.38317 58.8915 9.05243 58.9085C8.71817 58.9297 8.46438 59.2181 8.48553 59.5524C8.8292 64.9436 8.64884 70.3893 7.95329 75.7482C6.35715 75.7782 4.74984 75.797 3.16017 75.7817C2.43406 75.7752 1.72147 75.7118 1.4295 75.2959C1.24386 75.0321 1.22682 74.6156 1.22388 74.1391C1.2092 71.4156 1.19392 68.5999 1.28028 65.8371C1.39484 62.1942 1.70032 59.1999 2.82061 56.4277C4.12596 53.1966 6.56452 50.472 9.60817 48.7912C9.07064 50.7757 8.93729 52.8665 9.2369 54.912C9.26157 55.0789 9.35439 55.2281 9.49362 55.3238C9.63285 55.4196 9.80556 55.4525 9.97005 55.4155C10.6151 55.2704 11.172 54.9713 11.7113 54.6829C12.0485 54.502 12.3663 54.3316 12.6935 54.2041C13.3668 53.9415 14.265 53.9374 14.6022 54.4462C14.7873 54.7258 14.8102 55.157 14.8319 55.5741C15.1891 62.364 16.4028 69.0887 18.436 75.5761C15.9851 75.5661 13.5089 75.6225 11.1074 75.6801ZM19.793 75.4668C19.6156 72.815 19.4476 70.1332 19.2949 67.4855C19.0082 62.5261 18.7609 57.4963 18.5588 52.5363C18.5318 51.8731 18.5053 51.2075 18.4801 50.5407C20.2084 51.6592 22.0254 52.511 24.5151 53.3852C24.8711 53.5097 25.2506 53.6296 25.6595 53.6296C25.7141 53.6296 25.7693 53.6272 25.8245 53.6231C26.4149 53.5749 26.8984 53.2718 27.2861 53.0286L32.249 49.9174C32.2161 50.7921 32.1821 51.6663 32.1468 52.5363C31.9447 57.4963 31.6974 62.5261 31.4107 67.4855C31.2562 70.1561 31.087 72.8602 30.9085 75.5344C27.2715 75.3752 23.534 75.2395 19.793 75.4668ZM49.4817 74.1391C49.4788 74.6156 49.4618 75.0321 49.2761 75.2959C48.9836 75.7118 48.2715 75.7752 47.5454 75.7817C45.9546 75.7964 44.3485 75.7776 42.7523 75.7482C42.0562 70.3893 41.8758 64.943 42.2195 59.5524C42.2412 59.2181 41.9874 58.9297 41.6532 58.9085C41.3224 58.8909 41.0305 59.1406 41.0093 59.4749C40.6651 64.8836 40.8401 70.3465 41.5269 75.7247C40.8801 75.7106 40.2368 75.6953 39.5988 75.6801C37.1967 75.6225 34.7205 75.5667 32.269 75.5761C34.3028 69.0893 35.5165 62.3646 35.8737 55.5741C35.8954 55.1576 35.9178 54.7264 36.1034 54.4462C36.4406 53.9374 37.3388 53.9421 38.0121 54.2047C38.3393 54.3322 38.6571 54.5026 38.9943 54.6829C39.5336 54.9719 40.0905 55.2704 40.7356 55.4155C40.9 55.4525 41.0728 55.4196 41.212 55.3238C41.3512 55.2287 41.444 55.0789 41.4687 54.912C41.7683 52.8665 41.635 50.7757 41.0974 48.7912C44.1411 50.472 46.5797 53.1966 47.885 56.4277C49.0059 59.1999 49.3108 62.1942 49.4253 65.8371C49.5117 68.5999 49.4964 71.4156 49.4817 74.1391Z" fill="white"/>
</svg>
