<svg width="51" height="73" viewBox="0 0 51 73" fill="none" xmlns="http://www.w3.org/2000/svg">
<path d="M33.3788 39.66L33.3718 38.66L32.4717 38.6663L32.3836 39.5621L33.3788 39.66ZM32.7188 46.37V47.37H33.6252L33.7139 46.4679L32.7188 46.37ZM16.6588 46.37L15.6635 46.4676L15.752 47.37H16.6588V46.37ZM15.0088 29.54V28.54H13.9059L14.0135 29.6376L15.0088 29.54ZM21.1688 23.93V24.93H22.1688V23.93H21.1688ZM1.91875 23.93H0.91875V24.93H1.91875V23.93ZM15.0088 72H14.0088V73H15.0088V72ZM15.0088 53.96V52.96H14.0088V53.96H15.0088ZM33.9288 53.96H34.9288V52.96H33.9288V53.96ZM33.9288 72V73H34.9288V72H33.9288ZM18.0888 2.38H32.9388V0.379998H18.0888V2.38ZM32.9388 2.38C38.2122 2.38 41.9809 3.49566 44.4215 5.55437C46.8295 7.58559 48.1088 10.6763 48.1088 15.02H50.1088C50.1088 10.2704 48.693 6.54107 45.711 4.02563C42.7616 1.53767 38.4453 0.379998 32.9388 0.379998V2.38ZM48.1088 15.02V26.02H50.1088V15.02H48.1088ZM48.1088 26.02C48.1088 30.3328 46.8623 33.4094 44.5211 35.4395C42.1518 37.494 38.4941 38.6242 33.3718 38.66L33.3857 40.66C38.75 40.6225 42.9574 39.4426 45.8314 36.9505C48.7336 34.4339 50.1088 30.7272 50.1088 26.02H48.1088ZM32.3836 39.5621L31.7236 46.2721L33.7139 46.4679L34.374 39.7579L32.3836 39.5621ZM32.7188 45.37H16.6588V47.37H32.7188V45.37ZM17.654 46.2724L16.004 29.4424L14.0135 29.6376L15.6635 46.4676L17.654 46.2724ZM15.0088 30.54H27.1088V28.54H15.0088V30.54ZM27.1088 30.54C28.1504 30.54 29.1184 30.3136 29.8319 29.6857C30.5698 29.0363 30.8588 28.1164 30.8588 27.12H28.8588C28.8588 27.737 28.6894 28.027 28.5106 28.1843C28.3075 28.3631 27.9005 28.54 27.1088 28.54V30.54ZM30.8588 27.12V16.45H28.8588V27.12H30.8588ZM30.8588 16.45C30.8588 15.4536 30.5698 14.5337 29.8319 13.8843C29.1184 13.2564 28.1504 13.03 27.1088 13.03V15.03C27.9005 15.03 28.3075 15.2069 28.5106 15.3857C28.6894 15.543 28.8588 15.833 28.8588 16.45H30.8588ZM27.1088 13.03H23.9188V15.03H27.1088V13.03ZM23.9188 13.03C22.8771 13.03 21.9091 13.2564 21.1956 13.8843C20.4577 14.5337 20.1688 15.4536 20.1688 16.45H22.1688C22.1688 15.833 22.3381 15.543 22.5169 15.3857C22.72 15.2069 23.127 15.03 23.9188 15.03V13.03ZM20.1688 16.45V23.93H22.1688V16.45H20.1688ZM21.1688 22.93H1.91875V24.93H21.1688V22.93ZM2.91875 23.93V15.02H0.91875V23.93H2.91875ZM2.91875 15.02C2.91875 10.6763 4.19805 7.58559 6.60603 5.55437C9.0466 3.49566 12.8153 2.38 18.0888 2.38V0.379998C12.5822 0.379998 8.2659 1.53767 5.31647 4.02563C2.33445 6.54107 0.91875 10.2704 0.91875 15.02H2.91875ZM16.0088 72V53.96H14.0088V72H16.0088ZM15.0088 54.96H33.9288V52.96H15.0088V54.96ZM32.9288 53.96V72H34.9288V53.96H32.9288ZM33.9288 71H15.0088V73H33.9288V71Z" fill="white"/>
</svg>
