<svg width="51" height="77" viewBox="0 0 51 77" fill="none" xmlns="http://www.w3.org/2000/svg">
<path d="M50.1767 73.4308L49.5375 61.4842C49.3601 58.1638 49.1586 54.4 47.284 51.26C45.5915 48.4243 42.8123 46.5627 40.1252 44.7621C39.5842 44.3996 39.0255 44.0254 38.4903 43.6518C34.562 40.9137 32.5205 38.1755 32.2521 35.2852C34.465 33.4882 36.006 30.8869 36.4759 28.0659C36.4971 28.0665 36.5182 28.0665 36.5388 28.0665C37.7237 28.0665 38.8264 27.6312 39.5765 26.8469C40.6093 25.7683 40.8114 24.0764 40.0465 22.9133C39.6746 22.3464 39.0543 21.9393 38.354 21.7877C39.6905 19.8661 40.0048 17.2208 39.0549 15.0754C38.9791 14.9038 38.8968 14.7376 38.8175 14.5766C38.6113 14.1578 38.4163 13.7624 38.3717 13.3682C38.2959 12.7026 38.6413 12.0194 39.0061 11.2962C39.4291 10.4597 39.8662 9.59437 39.7722 8.5857C39.6576 7.35673 38.834 6.51901 38.0368 5.70949C37.6755 5.34174 37.3342 4.99455 37.0675 4.62151C36.8478 4.31427 36.6663 3.96767 36.4742 3.59992C36.1481 2.9778 35.8109 2.33394 35.2499 1.81756C34.4609 1.09205 33.333 0.716662 31.8978 0.701975C31.3785 0.697276 30.8557 0.734873 30.3534 0.771883C29.7965 0.813005 29.2707 0.851778 28.7449 0.835329C27.8602 0.807718 26.9914 0.623843 26.072 0.428806C25.451 0.297802 24.8084 0.161511 24.1575 0.0775045C22.0814 -0.190965 20.3307 0.243169 19.2292 1.30001C18.9531 1.56554 18.7281 1.85692 18.5108 2.13949C18.2641 2.45907 18.0308 2.76161 17.7535 2.98308C17.3188 3.32969 16.7443 3.50651 16.1357 3.69391C15.5946 3.86075 15.0354 4.03288 14.5143 4.33953C13.3958 4.99866 12.6468 6.21294 12.5592 7.50888C12.5457 7.70862 12.5481 7.90131 12.5498 8.08753C12.5533 8.40065 12.5557 8.69614 12.4811 8.94052C12.3507 9.36878 11.9624 9.72596 11.5511 10.1043C11.4084 10.2359 11.2603 10.3716 11.1194 10.5143C9.65011 12 8.92754 14.304 9.13726 16.8354C9.31115 18.9344 10.0408 20.8912 10.7728 22.7834C10.3615 23.0173 9.99965 23.338 9.72825 23.7357C8.86938 24.9946 9.05325 26.8128 10.1465 27.875C11.0177 28.7215 12.3536 28.9765 13.4845 28.5911C14.0719 31.321 15.6645 33.8019 17.8775 35.4943C17.8816 35.5149 17.8834 35.5349 17.8898 35.5554C18.2441 36.7139 17.8305 38.0891 17.0803 39.3257C17.0468 39.3669 17.0198 39.4115 16.9981 39.4585C16.5933 40.1006 16.0998 40.7016 15.5805 41.2091C14.1377 42.6185 12.212 43.5214 10.3504 44.3955L10.029 44.5465C7.86893 45.5622 5.8046 46.622 4.28953 48.4026C2.52539 50.4752 1.82279 53.2192 1.32638 55.8763C0.215494 61.8179 -0.201015 67.8922 0.0897778 73.9301C0.113276 74.4136 0.152049 75.2225 0.69545 75.7877C1.28056 76.3951 2.16116 76.4292 2.68753 76.4497C12.1962 76.8163 21.7918 77.0002 31.3644 77.0002C36.564 77.0002 41.7572 76.9456 46.9251 76.8375C47.8738 76.8175 48.943 76.7282 49.6251 75.9175C50.219 75.2114 50.2231 74.302 50.1767 73.4308V73.4308ZM32.6768 40.3221C33.3224 43.4908 33.6461 46.7201 33.6426 49.9535C32.0588 47.8369 30.3381 45.8101 28.5117 43.905C28.5916 43.8339 28.6727 43.7623 28.7573 43.69L32.6768 40.3221ZM10.3463 16.7361C10.1659 14.5578 10.7622 12.6016 11.9817 11.3679C12.1034 11.2451 12.2338 11.1253 12.3724 10.9978C12.8612 10.5478 13.4152 10.0385 13.6419 9.29476C13.7712 8.87179 13.7665 8.44882 13.7629 8.07578C13.7612 7.90483 13.7594 7.74387 13.77 7.59113C13.8299 6.7023 14.3639 5.83638 15.1305 5.38462C15.5288 5.15023 15.997 5.0063 16.4929 4.85356C17.1831 4.64149 17.8969 4.42178 18.5108 3.93066C18.9026 3.61813 19.1917 3.24274 19.4719 2.88028C19.6704 2.6218 19.859 2.378 20.0699 2.17533C21.1908 1.0991 23.0148 1.15314 24.0024 1.28062C24.6051 1.35876 25.2237 1.48917 25.8217 1.61548C26.7523 1.81286 27.7151 2.01671 28.7073 2.04785C29.2972 2.06665 29.8799 2.02317 30.4439 1.98146C30.942 1.94445 31.4144 1.90921 31.8861 1.91449C33.0123 1.92624 33.8676 2.19354 34.4292 2.70992C34.8357 3.08354 35.1101 3.60756 35.4003 4.16271C35.6035 4.55043 35.8133 4.95108 36.0817 5.32647C36.4037 5.77705 36.7949 6.17476 37.1732 6.55955C37.8506 7.24805 38.4909 7.89896 38.5655 8.69849C38.6266 9.35938 38.2859 10.0344 37.9246 10.7493C37.4952 11.5994 37.051 12.4788 37.1674 13.5045C37.2355 14.109 37.4869 14.6189 37.7302 15.1124C37.8077 15.2692 37.8811 15.4179 37.9469 15.5659C38.8046 17.5033 38.4069 19.9378 37.0193 21.5327C36.9905 21.363 36.9541 21.1944 36.9083 21.0269C36.8431 20.7896 36.641 20.6151 36.3966 20.5858C35.9601 20.5329 35.5213 20.4835 35.0813 20.436C35.1124 19.5342 35.3509 18.6401 35.6053 17.6978L35.647 17.5445C35.9613 16.3772 36.2362 15.2322 36.1522 14.0497C36.0506 12.6169 35.3797 11.3773 34.3575 10.7329C33.5604 10.23 32.3801 10.1166 31.667 10.8721C31.546 11.0002 31.4584 11.1329 31.3815 11.2504C31.3351 11.3209 31.2916 11.3873 31.2499 11.4372C30.9438 11.805 30.3005 11.8402 29.8153 11.805C28.1087 11.681 26.4339 10.8227 25.3365 9.51036C25.165 9.30534 24.8794 9.2366 24.6333 9.34176C24.3877 9.44633 24.2397 9.69952 24.2685 9.96564C24.4512 11.6282 25.1462 13.2307 26.2189 14.5149C25.0645 14.5496 23.9084 14.3029 22.8692 13.7882C21.4769 13.0992 20.3366 11.9501 19.6581 10.5525L19.597 10.4244C19.3115 9.82876 18.9561 9.08798 18.1577 8.83889C17.5362 8.64621 16.8283 8.83654 16.2144 9.36232C14.8397 10.5408 14.7199 12.4253 14.771 13.4434C14.8068 14.1636 14.929 14.868 15.0471 15.5495C15.1546 16.1698 15.2557 16.7561 15.2974 17.3512C15.3532 18.1513 15.3085 19.6253 14.3903 20.5147C14.1865 20.5382 13.9821 20.5611 13.7788 20.5858C13.5344 20.6151 13.3323 20.7896 13.2671 21.0269C13.1432 21.4793 13.0832 21.9434 13.0803 22.4075C12.6979 22.3299 12.3043 22.3246 11.9201 22.3857C11.2133 20.5617 10.5066 18.6789 10.3463 16.7361V16.7361ZM26.0955 21.0786C25.9422 21.4311 25.8558 21.81 25.8276 22.2013L24.3566 22.3998C24.3454 21.9246 24.2538 21.4781 24.0799 21.0786C23.5823 19.9337 22.4197 19.9337 21.8611 19.9331C21.8587 19.9331 21.8564 19.9331 21.854 19.9331C20.8242 19.9331 19.7844 20.0183 18.7787 20.1005C18.5601 20.1187 18.3422 20.1363 18.1248 20.1534C17.4146 20.2086 16.7002 20.2721 15.9876 20.3431C16.4071 19.5025 16.5892 18.4503 16.5064 17.2672C16.4611 16.611 16.3495 15.9666 16.2414 15.3433C16.1245 14.6677 16.0141 14.0297 15.9818 13.3835C15.9142 12.0276 16.2867 10.8979 17.0034 10.2835C17.2806 10.0461 17.5932 9.93333 17.797 9.99737C18.0908 10.0884 18.3005 10.5261 18.5031 10.9491L18.5672 11.0818C19.3626 12.7202 20.6991 14.0673 22.3316 14.8756C23.9636 15.6834 25.8458 15.9295 27.6305 15.5683C27.8561 15.5224 28.0365 15.3532 28.0958 15.1306C28.1551 14.9079 28.0835 14.6706 27.9102 14.519C27.0343 13.7489 26.3534 12.7608 25.9287 11.6734C27.0454 12.4436 28.3607 12.9153 29.7278 13.0146C30.8304 13.095 31.6793 12.8178 32.1822 12.2127C32.2674 12.111 32.3349 12.0082 32.3948 11.9172C32.4495 11.8338 32.5012 11.7556 32.5487 11.7045C32.7972 11.4419 33.3453 11.5283 33.7113 11.7586C34.4081 12.198 34.8686 13.0868 34.9427 14.136C35.0137 15.1312 34.7735 16.1258 34.4762 17.2296L34.4351 17.3823C34.1801 18.3258 33.9193 19.2986 33.8723 20.3132C33.2643 20.2544 32.6563 20.2004 32.0512 20.1534C31.8338 20.1363 31.6159 20.1181 31.3973 20.1005C30.3916 20.0183 29.3512 19.9331 28.3214 19.9331C28.319 19.9331 28.3167 19.9331 28.3143 19.9331C27.7557 19.9331 26.5931 19.9337 26.0955 21.0786ZM14.3504 21.7389C15.6334 21.5891 16.9329 21.4622 18.2188 21.3624C18.4379 21.3448 18.6571 21.3271 18.8774 21.3089C19.859 21.2284 20.8736 21.1456 21.854 21.1456H21.8605C22.6483 21.1456 22.8451 21.2801 22.9679 21.5621C23.4413 22.6513 22.912 24.7432 21.4939 25.9134C20.0746 27.0848 17.8387 27.2147 16.2937 26.2148C14.8603 25.2878 14.0702 23.4208 14.3504 21.7389ZM27.2076 21.5621C27.3303 21.2801 27.5271 21.1456 28.3149 21.1456H28.3208C29.3013 21.1456 30.3164 21.2284 31.298 21.3089C31.5178 21.3271 31.7375 21.3448 31.9566 21.3624C33.2425 21.4622 34.542 21.5891 35.8244 21.7389C36.1052 23.4208 35.3145 25.2872 33.8811 26.2148C32.3361 27.2147 30.1008 27.0848 28.6809 25.9134C27.2634 24.7432 26.7341 22.6513 27.2076 21.5621ZM14.5407 27.6C14.5119 27.3891 14.3739 27.2088 14.1783 27.1254C13.9826 27.0414 13.7565 27.0666 13.5843 27.1923C12.8265 27.7416 11.6633 27.6582 10.9919 27.0061C10.3198 26.3534 10.2029 25.1938 10.731 24.4201C11.2568 23.6494 12.3736 23.3351 13.2242 23.7157C13.5479 25.1345 14.3997 26.4339 15.6352 27.2329C16.5393 27.818 17.6043 28.1058 18.6694 28.1058C19.963 28.1058 21.2572 27.6811 22.2658 26.8487C22.9943 26.2477 23.6499 25.289 24.0194 24.2838C24.0987 24.0688 24.1639 23.8544 24.2156 23.6423L25.9087 23.4138C26.1683 24.7462 26.9532 26.0591 27.9096 26.8481C28.9182 27.6811 30.2124 28.1053 31.5066 28.1053C32.5717 28.1053 33.6361 27.8174 34.5402 27.2329C35.9396 26.3276 36.846 24.782 37.051 23.1477C37.2849 22.9791 37.6021 22.9056 37.9422 22.9456C38.3934 22.9985 38.8117 23.2411 39.0337 23.5789C39.489 24.2715 39.3427 25.3383 38.7012 26.0086C38.0885 26.6495 37.0675 26.9597 36.0371 26.8193C35.8744 26.7976 35.7116 26.8416 35.583 26.9415C35.4543 27.0419 35.3709 27.19 35.3527 27.3521C34.9708 30.7142 32.883 33.7995 29.9034 35.4039C26.9232 37.0082 23.1987 37.0529 20.1815 35.5202C17.1637 33.9875 15.0025 30.9527 14.5407 27.6ZM19.6317 36.6011C21.2719 37.4341 23.0989 37.8495 24.9264 37.8495C26.8498 37.8495 28.7731 37.3895 30.4779 36.4719C30.7024 36.3508 30.9221 36.2216 31.1371 36.0859C31.318 37.1063 31.6899 38.1044 32.2562 39.0849L27.9671 42.7706C27.6499 43.0432 27.2904 43.3516 27.0207 43.7593C26.5584 44.4584 26.4615 45.282 26.3757 46.0093L26.3663 46.0898C26.1683 47.7599 25.8558 49.4224 25.4334 51.0526C25.2936 50.5327 25.1796 49.9934 25.0621 49.4395C24.7766 48.086 24.4811 46.686 23.7439 45.4418C22.9937 44.1735 21.8793 43.2253 20.8013 42.3083C19.8279 41.48 18.9038 40.6922 18.2611 39.7082C18.8503 38.6701 19.2486 37.5187 19.2316 36.3867C19.3638 36.4601 19.4965 36.5324 19.6317 36.6011V36.6011ZM16.6955 50.1115C16.306 47.0368 16.6479 43.9015 17.6883 40.98C18.3698 41.8301 19.2028 42.5403 20.0153 43.2318C20.5428 43.6806 21.0551 44.1165 21.5168 44.5782L16.6955 50.1115ZM1.57018 74.9482C1.35928 74.7291 1.32168 74.2967 1.30112 73.8725C1.01503 67.9286 1.42508 61.9489 2.51834 56.1001C3.05704 53.2198 3.72146 50.9428 5.21361 49.1892C6.57182 47.5931 8.51044 46.6014 10.546 45.6445L10.8662 45.4941C12.6332 44.6646 14.4544 43.8081 15.963 42.5027C15.2715 45.2562 15.1399 48.1353 15.5917 50.9504C15.6939 51.5884 16.111 51.8128 16.4459 51.8128C16.4523 51.8128 16.4582 51.8128 16.4641 51.8122C16.8301 51.8034 17.0498 51.5514 17.132 51.4568L22.3216 45.5005C22.4568 45.6809 22.586 45.8648 22.7011 46.0592C23.3362 47.1319 23.5982 48.3744 23.8761 49.6897C24.1134 50.8124 24.3619 51.9697 24.8595 53.0482L24.5146 75.7554C20.3014 75.7166 16.0887 75.642 11.886 75.5327L10.5436 60.8826C10.5131 60.5489 10.217 60.3022 9.88451 60.3339C9.55083 60.3645 9.30527 60.6594 9.33582 60.9931L10.6652 75.5004C8.01697 75.427 5.37223 75.34 2.73511 75.2384C2.26926 75.2208 1.79635 75.1832 1.57018 74.9482V74.9482ZM48.6975 75.1373C48.3415 75.5597 47.5825 75.6108 46.8992 75.6249C44.6763 75.6714 42.448 75.7072 40.2169 75.7336C40.3115 70.4935 40.9007 65.2369 41.971 60.1066C42.0398 59.7788 41.8295 59.4574 41.5016 59.3887C41.1727 59.3206 40.8525 59.5309 40.7844 59.8587C39.6958 65.0747 39.0978 70.42 39.0044 75.7477C34.5861 75.793 30.1566 75.7982 25.7272 75.7648L26.0696 53.2245C26.0749 53.211 26.0808 53.1986 26.0855 53.1845C26.7922 50.9246 27.2921 48.5853 27.5706 46.2325L27.58 46.1509C27.6317 45.7114 27.6834 45.2902 27.8038 44.9213C29.9422 47.1689 31.9307 49.5863 33.7172 52.1195C33.8323 52.2834 34.0186 52.3762 34.2124 52.3762C34.2694 52.3762 34.3276 52.3686 34.3846 52.3515C34.6336 52.2781 34.8081 52.0537 34.8181 51.7934C34.9509 48.3726 34.7241 44.9442 34.1449 41.5722C35.1271 42.6102 36.342 43.633 37.7971 44.647C38.3417 45.0265 38.9051 45.4042 39.4502 45.7696C42.0262 47.4956 44.6898 49.2803 46.243 51.8815C47.9637 54.7648 48.1564 58.3689 48.3268 61.5488L48.9659 73.496C49.0006 74.1504 49.0065 74.769 48.6975 75.1373V75.1373Z" fill="white"/>
</svg>
