<svg width="29" height="18" viewBox="0 0 29 18" fill="none" xmlns="http://www.w3.org/2000/svg">
<path d="M13.6656 10.202L13.6643 10.2C13.2666 9.57895 12.6653 9.11353 11.8336 8.8098L10.7534 8.41531L11.7786 7.89438C12.3464 7.60592 12.7411 7.30296 12.9936 6.99739L12.9949 6.9959C13.4591 6.4385 13.7129 5.68129 13.7129 4.66589C13.7129 3.68997 13.4647 2.87924 12.9838 2.21194C12.1921 1.1401 10.8176 0.534937 8.71027 0.5H0.5V17.5H8.12644C9.01124 17.5 9.82596 17.421 10.5731 17.267L13.6656 10.202ZM13.6656 10.202C14.0725 10.8307 14.2885 11.6114 14.2885 12.567C14.2885 13.5482 14.0472 14.4117 13.5649 15.1711L13.5648 15.1711M13.6656 10.202L13.5648 15.1711M13.5648 15.1711L13.5602 15.1786M13.5648 15.1711L13.5602 15.1786M13.5602 15.1786C13.2497 15.6872 12.8676 16.1117 12.4114 16.4523L12.4113 16.4523M13.5602 15.1786L12.4113 16.4523M12.4113 16.4523L12.4063 16.4562M12.4113 16.4523L12.4063 16.4562M12.4063 16.4562C11.8976 16.8462 11.2887 17.1193 10.5732 17.267L12.4063 16.4562ZM3.66145 7.09649V7.59649H4.16145H7.97973C8.82358 7.59649 9.5565 7.43697 10.1471 7.0775C10.8325 6.6606 11.1191 5.93528 11.1191 5.06768C11.1191 4.58713 11.0266 4.14551 10.8089 3.77197C10.5875 3.39199 10.2561 3.11684 9.84097 2.94514L9.82489 2.93849L9.80839 2.93297C9.18437 2.72434 8.41516 2.62564 7.51991 2.62564H4.16145H3.66145V3.12564V7.09649ZM8.0392 9.5766V9.57658H8.03454H4.16145H3.66145V10.0766V14.8735V15.3735H4.16145H7.9746C8.79034 15.3735 9.48462 15.2688 10.0211 15.0072L10.0211 15.0072L10.0245 15.0055C11.0293 14.5059 11.4867 13.5513 11.4867 12.3099C11.4867 11.7747 11.3768 11.2859 11.1294 10.8697C10.88 10.4503 10.5103 10.1374 10.0468 9.92692C9.52616 9.68727 8.84155 9.58407 8.0392 9.5766ZM19.0862 11.9618C19.1424 13.3657 19.639 14.4548 20.6726 15.0869C21.2811 15.4715 21.9996 15.6462 22.7995 15.6462C23.6516 15.6462 24.3987 15.4301 24.9908 14.9421C25.2465 14.7359 25.4672 14.4735 25.6573 14.17H28.1868C28.0179 14.6359 27.7003 15.1312 27.2031 15.6567L27.2031 15.6566L27.1988 15.6613C26.1574 16.7904 24.6817 17.3827 22.7054 17.3827C21.097 17.3827 19.6916 16.8904 18.4658 15.9066C17.3142 14.9755 16.6814 13.4294 16.6814 11.131C16.6814 8.98122 17.2482 7.4136 18.314 6.34352C19.3995 5.2558 20.8036 4.70242 22.5839 4.70242C23.6468 4.70242 24.5885 4.89164 25.4193 5.26188C26.2296 5.62462 26.9025 6.19521 27.4393 6.99365L27.4393 6.99367L27.4429 6.99889C27.9258 7.69788 28.2419 8.51271 28.3909 9.4574C28.4599 9.92169 28.4991 10.5811 28.5 11.4418H19.5858H19.0653L19.0862 11.9618ZM25.9899 9.7175V9.69987L25.9887 9.68229C25.9187 8.69091 25.5794 7.87347 24.9135 7.30136C24.2757 6.74836 23.486 6.48182 22.5839 6.48182C21.6164 6.48182 20.8031 6.76254 20.2099 7.372C19.6392 7.95414 19.3056 8.72588 19.1719 9.64565L19.0888 10.2176H19.6667H25.4899H25.9899V9.71757V9.7175ZM25.6897 2.04723H19.4227V1.24675H25.6897V2.04723Z" stroke="white"/>
</svg>
