<svg width="44" height="37" viewBox="0 0 44 37" fill="none" xmlns="http://www.w3.org/2000/svg">
<path fill-rule="evenodd" clip-rule="evenodd" d="M24 0H21V1.52853C13.9255 1.86575 9.20263 5.14902 6.18229 9.08464C3.33742 12.7916 2.00544 17.0707 1.60409 20.0036C1.5697 20.0012 1.53499 20 1.5 20C0.671573 20 0 20.6716 0 21.5C0 22.3284 0.671573 23 1.5 23C2.32843 23 3 22.3284 3 21.5C3 21.0839 2.83059 20.7074 2.55699 20.4357C2.88491 17.6557 4.15114 13.3739 6.9756 9.69346C9.82885 5.97556 14.2749 2.86407 21 2.52973V3H24V2.56134C30.4166 3.01038 34.6199 5.87141 37.2996 9.37591C40.0552 12.9796 41.2166 17.289 41.4633 20.4159C41.1778 20.689 41 21.0737 41 21.5C41 22.3284 41.6716 23 42.5 23C43.3284 23 44 22.3284 44 21.5C44 20.6716 43.3284 20 42.5 20C42.4768 20 42.4537 20.0005 42.4307 20.0016C42.1175 16.7545 40.8913 12.4268 38.094 8.76848C35.2342 5.02849 30.7487 2.01261 24 1.55901V0ZM13.9253 24.6701C13.702 25.1841 13.5765 25.54 13.5381 25.738C13.3778 26.5645 13.7398 27.4919 14.3653 28.3754C14.9809 29.245 15.7878 29.9797 16.3355 30.3832L16.539 30.533V30.7857V34H27.932V30.7857V30.5595L28.1018 30.4102C28.5557 30.0111 29.2302 29.2792 29.7464 28.4092C30.2679 27.5302 30.5852 26.583 30.4454 25.7231C30.4121 25.5181 30.3038 25.1575 30.1142 24.6441C29.9284 24.141 29.6762 23.5214 29.3723 22.8124C28.7648 21.3947 27.9583 19.6371 27.0817 17.7716C26.1791 15.8508 25.1906 13.7919 24.275 11.8847L24.2749 11.8845C23.7056 10.6987 23.1645 9.57163 22.6898 8.57295C22.2591 9.33595 21.7863 10.1694 21.289 11.0458L21.2888 11.0462C20.0809 13.1751 18.7291 15.5577 17.4889 17.8009C16.4576 19.6662 15.5102 21.4233 14.7965 22.8403C14.4395 23.5491 14.1434 24.168 13.9253 24.6701ZM15.539 31.0331V34H14H13V35V36V37H14H30H31V36V35V34H30H28.932V31.0067C29.4369 30.5323 30.0895 29.7908 30.6064 28.9194C31.1783 27.9555 31.627 26.7599 31.4325 25.5627C31.3822 25.2533 31.2425 24.813 31.0522 24.2977C30.8581 23.772 30.5986 23.1351 30.2915 22.4184C29.677 20.9847 28.8647 19.2147 27.9867 17.3463C27.0658 15.3865 26.0842 13.3422 25.1761 11.451L25.176 11.4509L25.1759 11.4507C24.4851 10.0122 23.8369 8.6622 23.2903 7.50534L23.4365 7.24378L23.0708 7.03952L22.9529 6.78808L22.772 6.8727L22.5635 6.75622L22.4012 7.04621L22.0471 7.21192L22.166 7.46536C21.6531 8.37746 21.0608 9.42151 20.4277 10.5374C19.2153 12.6743 17.8534 15.0748 16.6138 17.317C15.5807 19.1856 14.6258 20.9561 13.9034 22.3905C13.5423 23.1074 13.2369 23.7451 13.0081 24.2717C12.7845 24.7864 12.6177 25.2314 12.5563 25.5477C12.3177 26.7783 12.8699 27.9938 13.5491 28.9532C14.1655 29.8238 14.9414 30.5623 15.539 31.0331ZM30 35H14V36H30V35Z" fill="#EA4D27"/>
</svg>
