<svg width="18" height="18" viewBox="0 0 18 18" fill="none" xmlns="http://www.w3.org/2000/svg">
<path d="M8.99979 18C4.03728 18 0 13.9628 0 8.99997C0 4.03756 4.03728 0 8.99979 0C13.9623 0 18 4.03721 18 9.00003C18 13.9624 13.9624 18 8.99979 18ZM8.99979 0.754579C4.45367 0.754579 0.755005 4.45317 0.755005 8.99962C0.755005 13.5461 4.45367 17.2447 8.99979 17.2447C13.5463 17.2447 17.245 13.5457 17.245 8.99962C17.245 4.45358 13.5463 0.754579 8.99979 0.754579ZM8.99979 16.7532C7.26218 16.7532 5.61895 16.1884 4.24756 15.1194L4.00598 14.9314L4.14002 14.6562C4.30272 14.3229 5.85155 11.357 10.1327 9.86556L10.4781 9.7455L10.6578 10.0698C11.7061 12.7956 12.1406 15.0892 12.2489 15.7275L12.2988 16.0208L12.0243 16.1375C11.0666 16.5459 10.0489 16.7532 8.99979 16.7532ZM4.96744 14.7144C6.15129 15.5551 7.53895 15.9978 8.99979 15.9978C9.84578 15.9978 10.669 15.8487 11.4508 15.5539C11.2945 14.7223 10.8933 12.8711 10.0839 10.6862C6.87264 11.901 5.41819 13.9485 4.96744 14.7144ZM12.8404 15.7578L12.7426 15.1791C12.6743 14.7744 12.2859 12.6224 11.3301 9.99396L11.1738 9.56477L11.6249 9.49265C12.1356 9.41071 12.6709 9.36959 13.2156 9.36959C14.857 9.36959 16.1431 9.74404 16.3843 9.81916L16.6962 9.91654L16.6445 10.2393C16.3081 12.3392 15.099 14.23 13.3267 15.429L12.8404 15.7578ZM12.1964 10.1774C12.8397 12.0278 13.2036 13.6064 13.375 14.4551C14.6301 13.4426 15.5063 12.0214 15.8378 10.4503C15.3422 10.3235 14.3776 10.1246 13.2157 10.1246C12.8699 10.1242 12.5282 10.1419 12.1964 10.1774ZM3.59335 14.5713L3.24757 14.1878C1.96411 12.7635 1.25744 10.9244 1.25744 9.01054C1.25744 8.9309 1.25897 8.85201 1.26196 8.77272L1.27442 8.40092L1.64663 8.4085C1.95993 8.41455 5.47892 8.45948 9.10023 7.37645L9.40185 7.28624L9.54493 7.56711C9.7703 8.00992 9.97412 8.43646 10.1505 8.83469L10.3264 9.23145L9.90922 9.35074C9.81448 9.37794 9.72085 9.4066 9.62799 9.43567C5.99499 10.61 4.0626 13.77 3.85426 14.1271L3.59335 14.5713ZM2.01433 9.16496C2.04716 10.67 2.56434 12.1158 3.48692 13.2992C4.19394 12.2611 6.12938 9.81687 9.28408 8.75352C9.19838 8.56967 9.1074 8.38095 9.01189 8.18807C5.96703 9.05019 3.04751 9.15668 2.01433 9.16496ZM16.746 9.40842L16.2854 9.31104C16.1269 9.27709 14.6837 8.98112 12.931 8.98112C12.3516 8.98112 11.797 9.01395 11.2825 9.0785L10.9952 9.11474L10.8857 8.84708C10.8347 8.7225 10.783 8.59792 10.7294 8.47223C10.5875 8.13779 10.4255 7.7852 10.2485 7.42321L10.071 7.06046L10.4448 6.90798C13.0835 5.83065 14.2703 4.29958 14.3971 4.12854L14.6855 3.739L14.9924 4.11421C16.1038 5.472 16.7251 7.18503 16.7414 8.93771L16.746 9.40842ZM12.9314 8.22618C14.2194 8.22618 15.3515 8.38019 15.9668 8.48362C15.8702 7.21751 15.4259 5.99299 14.6882 4.9583C14.1624 5.53926 13.0243 6.59621 11.0986 7.45011C11.2156 7.69886 11.3248 7.94196 11.424 8.17679C11.4414 8.21679 11.4584 8.25679 11.4754 8.29684C11.9378 8.24992 12.4263 8.22618 12.9314 8.22618ZM1.92258 7.88041L1.32804 7.87283L1.42167 7.42474C1.91506 5.06397 3.51711 3.03723 5.70771 2.00407L5.99005 1.87079L6.1739 2.12336C6.42154 2.4635 7.71898 4.2705 8.92808 6.41953L9.16743 6.84419L8.6963 6.96912C5.5144 7.81509 2.70701 7.88041 1.92258 7.88041ZM5.74958 2.82737C4.05538 3.72238 2.7893 5.28892 2.27247 7.12201C3.2713 7.10128 5.49326 6.9801 8.02547 6.36173C7.09954 4.76459 6.16785 3.41513 5.74958 2.82737ZM9.84766 6.63127L9.69101 6.34288C8.47621 4.1108 7.1218 2.27813 6.97155 2.07655L6.62952 1.61788L7.18594 1.48384C7.77901 1.34076 8.3894 1.26828 9.00015 1.26828C10.8925 1.26828 12.7154 1.96136 14.1333 3.21949L14.3851 3.44298L14.1914 3.71856C14.0665 3.89671 12.8917 5.48974 10.1557 6.51574L9.84766 6.63127ZM7.92508 2.10674C8.4143 2.79641 9.32408 4.1323 10.193 5.69056C11.9695 4.96464 12.9525 4.01906 13.3583 3.5544C12.122 2.56499 10.5879 2.02368 8.99979 2.02368C8.64009 2.02368 8.28032 2.05123 7.92508 2.10674Z" fill="white"/>
</svg>
