<svg version="1.1"
	 xmlns="http://www.w3.org/2000/svg" xmlns:xlink="http://www.w3.org/1999/xlink" xmlns:a="http://ns.adobe.com/AdobeSVGViewerExtensions/3.0/"
	 x="0px" y="0px" width="9px" height="18px" viewBox="0 0 9 18" style="enable-background:new 0 0 9 18;" xml:space="preserve">
<style type="text/css">
	.st0{fill:none;stroke:#FFFFFF;}
</style>
<defs>
</defs>
<path class="st0" d="M2.5,7H3V6.5v-2c0-1.3,0.4-2.2,1-2.9c0.6-0.7,1.4-1,2.5-1c0,0,0,0,0,0l2,0V3L7.2,3c0,0,0,0,0,0
	c-0.6,0-1,0.1-1.4,0.5C5.6,3.8,5.5,4.3,5.5,4.7v1.7V7H6h2.4l0,2.7H6H5.5v0.5v7.3H3v-7.3V9.7H2.5h-2V7H2.5z M8.7,3L8.7,3L8.7,3z"/>
</svg>