<svg width="18" height="18" viewBox="0 0 18 18" fill="none" xmlns="http://www.w3.org/2000/svg">
<g clip-path="url(#clip0)">
<path fill-rule="evenodd" clip-rule="evenodd" d="M3 0.7H15C16.2703 0.7 17.3 1.72975 17.3 3V15C17.3 16.2703 16.2703 17.3 15 17.3H3C1.72975 17.3 0.7 16.2703 0.7 15V3C0.7 1.72975 1.72975 0.7 3 0.7ZM0 3C0 1.34315 1.34315 0 3 0H15C16.6569 0 18 1.34315 18 3V15C18 16.6569 16.6569 18 15 18H3C1.34315 18 0 16.6569 0 15V3ZM4.8 2.5H13.2C14.4703 2.5 15.5 3.52975 15.5 4.8V13.2C15.5 14.4703 14.4703 15.5 13.2 15.5H4.8C3.52975 15.5 2.5 14.4703 2.5 13.2V4.8C2.5 3.52975 3.52975 2.5 4.8 2.5ZM1.8 4.8C1.8 3.14315 3.14315 1.8 4.8 1.8H13.2C14.8569 1.8 16.2 3.14315 16.2 4.8V13.2C16.2 14.8569 14.8569 16.2 13.2 16.2H4.8C3.14315 16.2 1.8 14.8569 1.8 13.2V4.8ZM9 13C11.2091 13 13 11.2091 13 9C13 6.79086 11.2091 5 9 5C6.79086 5 5 6.79086 5 9C5 11.2091 6.79086 13 9 13ZM9 13.5C11.4853 13.5 13.5 11.4853 13.5 9C13.5 6.51472 11.4853 4.5 9 4.5C6.51472 4.5 4.5 6.51472 4.5 9C4.5 11.4853 6.51472 13.5 9 13.5ZM11.2 9C11.2 10.215 10.215 11.2 9 11.2C7.78497 11.2 6.8 10.215 6.8 9C6.8 7.78497 7.78497 6.8 9 6.8C10.215 6.8 11.2 7.78497 11.2 9ZM11.7 9C11.7 10.4912 10.4912 11.7 9 11.7C7.50883 11.7 6.3 10.4912 6.3 9C6.3 7.50883 7.50883 6.3 9 6.3C10.4912 6.3 11.7 7.50883 11.7 9Z" fill="white"/>
</g>
<defs>
<clipPath id="clip0">
<rect width="18" height="18" fill="white" transform="matrix(-1 0 0 1 18 0)"/>
</clipPath>
</defs>
</svg>
