<svg width="13" height="13" viewBox="0 0 13 13" fill="none" xmlns="http://www.w3.org/2000/svg">
<path d="M12.2248 0.795739C11.7241 0.28261 11.0585 0 10.3504 0C9.64229 0 8.97661 0.28261 8.47591 0.795739L0.600931 8.8667C-0.20031 9.68788 -0.20031 11.024 0.600931 11.8452C1.00154 12.2558 1.52778 12.4611 2.05402 12.4611C2.58023 12.4611 3.10647 12.2558 3.50707 11.8452L9.70928 5.48865C10.2776 4.90623 10.2776 3.95856 9.70928 3.3761C9.14099 2.79367 8.2163 2.79367 7.64801 3.3761L3.66345 7.45978C3.54183 7.58442 3.54183 7.78653 3.66345 7.91121C3.78506 8.03588 3.9823 8.03585 4.10388 7.91121L8.08845 3.82753C8.41384 3.49401 8.94338 3.49401 9.26878 3.82753C9.5942 4.16105 9.5942 4.70373 9.26878 5.03726L3.06667 11.3938C2.50828 11.966 1.59975 11.9661 1.04137 11.3938C0.770884 11.1166 0.621922 10.748 0.621922 10.3559C0.621922 9.96388 0.770884 9.59531 1.04137 9.3181L8.91635 1.24717C9.29939 0.854598 9.80866 0.638411 10.3504 0.638411C10.8921 0.638411 11.4014 0.854598 11.7844 1.24717C12.5751 2.05756 12.5751 3.37616 11.7844 4.18655L6.127 9.98469C6.00538 10.1093 6.00538 10.3114 6.127 10.4361C6.24862 10.5608 6.44582 10.5608 6.56747 10.4361L12.2248 4.63798C13.2584 3.57866 13.2584 1.85503 12.2248 0.795739Z" fill="#D6C3C7"/>
</svg>
