<svg width="40" height="57" viewBox="0 0 40 57" fill="none" xmlns="http://www.w3.org/2000/svg">
<path d="M14.6479 2.66521C17.1479 1.24377 19.9296 0.390899 22.993 0.10661C22.2535 0.0355372 21.5141 0 20.7747 0C16.7958 0 13.2394 0.888404 10.0704 2.66521C6.93661 4.44202 4.43661 6.92955 2.67605 10.0923C0.880273 13.255 0 16.9507 0 21.1085C0 25.2662 0.880273 28.962 2.67605 32.1602C4.47182 35.3585 6.93661 37.846 10.0704 39.6228C13.2042 41.3996 16.7958 42.288 20.7747 42.288C21.5141 42.288 22.2535 42.2525 22.9577 42.1814C19.9296 41.8971 17.1479 41.0443 14.6479 39.6228C11.5141 37.846 9.01408 35.3585 7.25351 32.1602C5.45774 28.962 4.57747 25.2662 4.57747 21.1085C4.57747 16.9507 5.45774 13.255 7.25351 10.0923C9.04929 6.89401 11.5141 4.44202 14.6479 2.66521ZM35.4225 0.390894V2.66521C37.2183 3.76683 38.7324 5.18828 40 6.96508V0.390894H35.4225ZM33.3803 13.5393C33.4155 13.6103 33.4507 13.6814 33.4859 13.7525H38.0634C38.0282 13.6814 37.993 13.6103 37.9577 13.5393C36.7606 11.336 35.1056 9.6303 32.993 8.42207C30.9155 7.21384 28.5563 6.57419 25.9859 6.57419C25.1761 6.57419 24.4014 6.64526 23.662 6.75187C25.3521 7.00062 26.9366 7.5692 28.4155 8.42207C30.493 9.6303 32.1479 11.336 33.3803 13.5393ZM36.8662 30.4545H32.2887C31.2324 31.8404 29.9648 33.0131 28.4155 33.9015C26.9366 34.7544 25.3521 35.3229 23.6268 35.5717C24.3662 35.6783 25.1408 35.7494 25.9507 35.7494C28.5211 35.7494 30.8803 35.1453 32.993 33.9015C34.5423 33.0131 35.8451 31.8404 36.8662 30.4545ZM35.1056 39.6939V57H39.6831V35.5717C38.3803 37.2419 36.8662 38.6278 35.1056 39.6939Z" fill="#EA4D27"/>
</svg>
