<svg width="13" height="13" viewBox="0 0 13 13" fill="none" xmlns="http://www.w3.org/2000/svg">
<mask id="path-1-inside-1" fill="white">
<path fill-rule="evenodd" clip-rule="evenodd" d="M9 5C9 7.20914 7.20914 9 5 9C2.79086 9 1 7.20914 1 5C1 2.79086 2.79086 1 5 1C7.20914 1 9 2.79086 9 5ZM8.00021 9.00021C7.16451 9.62799 6.1257 10 5 10C2.23858 10 0 7.76142 0 5C0 2.23858 2.23858 0 5 0C7.76142 0 10 2.23858 10 5C10 6.27532 9.52253 7.43912 8.73661 8.32239L12.7071 12.2929L12 13L8.00021 9.00021Z"/>
</mask>
<path d="M8.00021 9.00021L8.70732 8.2931L8.09356 7.67935L7.39959 8.20067L8.00021 9.00021ZM8.73661 8.32239L7.98953 7.65765L7.36243 8.36243L8.0295 9.0295L8.73661 8.32239ZM12.7071 12.2929L13.4142 13L14.1213 12.2929L13.4142 11.5858L12.7071 12.2929ZM12 13L11.2929 13.7071L12 14.4142L12.7071 13.7071L12 13ZM5 10C7.76142 10 10 7.76142 10 5H8C8 6.65685 6.65685 8 5 8V10ZM0 5C0 7.76142 2.23858 10 5 10V8C3.34315 8 2 6.65685 2 5H0ZM5 0C2.23858 0 0 2.23858 0 5H2C2 3.34315 3.34315 2 5 2V0ZM10 5C10 2.23858 7.76142 0 5 0V2C6.65685 2 8 3.34315 8 5H10ZM5 11C6.34969 11 7.5979 10.5532 8.60083 9.79974L7.39959 8.20067C6.73113 8.70283 5.90171 9 5 9V11ZM-1 5C-1 8.31371 1.68629 11 5 11V9C2.79086 9 1 7.20914 1 5H-1ZM5 -1C1.68629 -1 -1 1.68629 -1 5H1C1 2.79086 2.79086 1 5 1V-1ZM11 5C11 1.68629 8.31371 -1 5 -1V1C7.20914 1 9 2.79086 9 5H11ZM9.48368 8.98713C10.4262 7.92784 11 6.52972 11 5H9C9 6.02091 8.61884 6.9504 7.98953 7.65765L9.48368 8.98713ZM8.0295 9.0295L12 13L13.4142 11.5858L9.44371 7.61529L8.0295 9.0295ZM12 11.5858L11.2929 12.2929L12.7071 13.7071L13.4142 13L12 11.5858ZM12.7071 12.2929L8.70732 8.2931L7.2931 9.70732L11.2929 13.7071L12.7071 12.2929Z" fill="#C6C6C6" mask="url(#path-1-inside-1)"/>
</svg>
