<!-- Generator: Adobe Illustrator 21.0.2, SVG Export Plug-In  -->
<svg version="1.1"
	 xmlns="http://www.w3.org/2000/svg" xmlns:xlink="http://www.w3.org/1999/xlink" xmlns:a="http://ns.adobe.com/AdobeSVGViewerExtensions/3.0/"
	 x="0px" y="0px" width="408.5px" height="410px" viewBox="0 0 408.5 410" style="enable-background:new 0 0 408.5 410;"
	 xml:space="preserve">
<style type="text/css">
	.st0{fill:url(#SVGID_1_);}
	.st1{fill:#FFFFFF;}
	.st2{fill:url(#SVGID_2_);}
	.st3{opacity:0.5;fill:#C6C6C6;enable-background:new    ;}
	.st4{fill:none;stroke:#6A6C71;}
	.st5{fill:#6A6C71;}
	.st6{fill:url(#SVGID_3_);}
	.st7{fill:url(#SVGID_4_);}
</style>
<defs>
</defs>
<g>
	
		<linearGradient id="SVGID_1_" gradientUnits="userSpaceOnUse" x1="205" y1="172.0005" x2="205" y2="181.0005" gradientTransform="matrix(1 0 0 1 0 -172.0005)">
		<stop  offset="0" style="stop-color:#6E1CB9"/>
		<stop  offset="1" style="stop-color:#E07519"/>
	</linearGradient>
	<path class="st0" d="M205,9c-2.5,0-4.5-2-4.5-4.5s2-4.5,4.5-4.5s4.5,2,4.5,4.5S207.5,9,205,9z M205,1c-1.9,0-3.5,1.6-3.5,3.5
		S203.1,8,205,8s3.5-1.6,3.5-3.5S206.9,1,205,1z"/>
</g>
<circle class="st1" cx="205" cy="4.5" r="1.5"/>
<linearGradient id="SVGID_2_" gradientUnits="userSpaceOnUse" x1="252.7244" y1="163.8616" x2="428.4575" y2="358.8526" gradientTransform="matrix(1 0 0 1 0 -172.0005)">
	<stop  offset="0" style="stop-color:#E07519"/>
	<stop  offset="1" style="stop-color:#6E1CB9"/>
</linearGradient>
<path class="st2" d="M238.5,7c0,1.1-0.7,2-1.5,2s-1.5-0.9-1.5-2s0.7-2,1.5-2S238.5,5.9,238.5,7z M267.5,14c0,1.1-0.7,2-1.5,2
	s-1.5-0.9-1.5-2s0.7-2,1.5-2S267.5,12.9,267.5,14z M294,27c0.8,0,1.5-0.7,1.5-1.5S294.8,24,294,24s-1.5,0.7-1.5,1.5S293.2,27,294,27
	z M319.5,39.5c0,0.8-0.9,1.5-2,1.5s-2-0.7-2-1.5s0.9-1.5,2-1.5S319.5,38.7,319.5,39.5z M339,58c0.8,0,1.5-0.7,1.5-1.5
	S339.8,55,339,55s-1.5,0.7-1.5,1.5S338.2,58,339,58z M358.5,74.5c0,0.8-0.9,1.5-2,1.5s-2-0.7-2-1.5s0.9-1.5,2-1.5
	S358.5,73.7,358.5,74.5z M372,98c0.8,0,1.5-0.7,1.5-1.5S372.8,95,372,95s-1.5,0.7-1.5,1.5S371.2,98,372,98z M386.5,118.5
	c0,0.8-0.9,1.5-2,1.5s-2-0.7-2-1.5s0.9-1.5,2-1.5S386.5,117.7,386.5,118.5z M394,143c0.8,0,1.5-0.7,1.5-1.5s-0.7-1.5-1.5-1.5
	s-1.5,0.7-1.5,1.5S393.2,143,394,143z M401.5,162c0,1.1-0.9,2-2,2s-2-0.9-2-2s0.9-2,2-2S401.5,160.9,401.5,162z M403,185
	c0.8,0,1.5-0.9,1.5-2s-0.7-2-1.5-2s-1.5,0.9-1.5,2S402.2,185,403,185z"/>
<path class="st3" d="M403,230.4c-1,0-1.8-0.7-1.8-1.7s0.7-1.8,1.7-1.8s1.8,0.7,1.8,1.7C404.7,229.5,404,230.3,403,230.4z
	 M396.9,259.6c-1,0-1.8-0.7-1.8-1.7s0.7-1.8,1.7-1.8s1.8,0.7,1.8,1.7C398.6,258.7,397.9,259.5,396.9,259.6z M384.5,286.4
	c0,1,0.8,1.7,1.8,1.7s1.7-0.8,1.7-1.8s-0.8-1.7-1.8-1.7C385.3,284.6,384.5,285.4,384.5,286.4z M373,312.2c-1,0-1.8-0.7-1.8-1.7
	s0.7-1.8,1.7-1.8s1.8,0.7,1.8,1.7C374.8,311.4,374,312.2,373,312.2z M355.2,332.1c0,1,0.8,1.7,1.8,1.7s1.7-0.8,1.7-1.8
	s-0.8-1.7-1.8-1.7C355.9,330.3,355.2,331.2,355.2,332.1z M339.1,352c-1,0-1.8-0.7-1.8-1.7s0.7-1.8,1.7-1.8s1.8,0.7,1.8,1.7
	C340.8,351.1,340.1,351.9,339.1,352z M315.8,366.8c0,1,0.8,1.7,1.8,1.7s1.7-0.8,1.7-1.8s-0.8-1.7-1.8-1.7
	C316.6,365,315.8,365.8,315.8,366.8z M296.1,381.5c-1,0-1.8-0.7-1.8-1.7s0.7-1.8,1.7-1.8s1.8,0.7,1.8,1.7
	C297.8,380.6,297,381.4,296.1,381.5z M271.7,390.1c0,1,0.8,1.7,1.8,1.7s1.7-0.8,1.7-1.8s-0.8-1.7-1.8-1.7
	C272.4,388.4,271.7,389.2,271.7,390.1z M253.5,397.8c-1,0-1.8-0.7-1.8-1.7s0.7-1.8,1.7-1.8s1.8,0.7,1.8,1.7
	C255.2,396.9,254.4,397.7,253.5,397.8z M230.7,400.2c0,1,0.8,1.7,1.8,1.7s1.7-0.8,1.7-1.8s-0.8-1.7-1.8-1.7
	C231.4,398.4,230.7,399.3,230.7,400.2z"/>
<path class="st3" d="M171.5,400c0-1.1,0.9-2,2-2s2,0.9,2,2s-0.9,2-2,2S171.5,401.1,171.5,400z M142.5,393c0-1.1,0.9-2,2-2s2,0.9,2,2
	s-0.9,2-2,2S142.5,394.1,142.5,393z M116.5,380c-1.1,0-2,0.7-2,1.5s0.9,1.5,2,1.5s2-0.7,2-1.5S117.6,380,116.5,380z M90.5,367.5
	c0-0.8,0.9-1.5,2-1.5s2,0.7,2,1.5s-0.9,1.5-2,1.5S90.5,368.3,90.5,367.5z M71.5,349c-1.1,0-2,0.7-2,1.5s0.9,1.5,2,1.5s2-0.7,2-1.5
	S72.6,349,71.5,349z M51.5,332.5c0-0.8,0.7-1.5,1.5-1.5s1.5,0.7,1.5,1.5S53.8,334,53,334S51.5,333.3,51.5,332.5z M37.5,309
	c-1.1,0-2,0.7-2,1.5s0.9,1.5,2,1.5s2-0.7,2-1.5S38.6,309,37.5,309z M23.5,288.5c0-0.8,0.7-1.5,1.5-1.5s1.5,0.7,1.5,1.5
	S25.8,290,25,290S23.5,289.3,23.5,288.5z M15.5,264c-1.1,0-2,0.7-2,1.5s0.9,1.5,2,1.5s2-0.7,2-1.5S16.6,264,15.5,264z M8.5,245
	c0-1.1,0.7-2,1.5-2s1.5,0.9,1.5,2s-0.7,2-1.5,2S8.5,246.1,8.5,245z M6.5,222c-1.1,0-2,0.9-2,2s0.9,2,2,2s2-0.9,2-2S7.6,222,6.5,222z
	"/>
<path class="st3" d="M6.9,180.9c1-0.1,1.8,0.7,1.9,1.7s-0.7,1.8-1.7,1.9c-1,0.1-1.8-0.7-1.9-1.7C5.2,181.8,6,181,6.9,180.9z
	 M12.4,151.6c1-0.1,1.8,0.7,1.9,1.7c0.1,1-0.7,1.8-1.7,1.9c-1,0.1-1.8-0.7-1.9-1.7S11.4,151.6,12.4,151.6z M24.1,124.5
	c-0.1-1-0.9-1.7-1.9-1.7c-1,0.1-1.7,0.9-1.7,1.9c0.1,1,0.9,1.7,1.9,1.7C23.4,126.3,24.1,125.5,24.1,124.5z M35,98.4
	c1-0.1,1.8,0.7,1.9,1.7c0.1,1-0.7,1.8-1.7,1.9s-1.8-0.7-1.9-1.7C33.2,99.3,34,98.4,35,98.4z M52.3,78.1c-0.1-1-0.9-1.7-1.9-1.7
	c-1,0.1-1.7,0.9-1.7,1.9c0.1,1,0.9,1.7,1.9,1.7C51.6,79.9,52.4,79,52.3,78.1z M67.9,57c1-0.1,1.8,0.7,1.9,1.7s-0.7,1.8-1.7,1.9
	c-1,0.1-1.8-0.7-1.9-1.7C66.2,57.8,66.9,57,67.9,57z M90.8,41.6c-0.1-1-0.9-1.7-1.9-1.7c-1,0.1-1.7,0.9-1.7,1.9
	c0.1,1,0.9,1.7,1.9,1.7C90.1,43.4,90.9,42.6,90.8,41.6z M110.2,26.5c1-0.1,1.8,0.7,1.9,1.7s-0.7,1.8-1.7,1.9s-1.8-0.7-1.9-1.7
	C108.5,27.3,109.3,26.5,110.2,26.5z M134.4,17.2c-0.1-1-0.9-1.7-1.9-1.7c-1,0.1-1.7,0.9-1.7,1.9c0.1,1,0.9,1.7,1.9,1.7
	C133.7,19,134.4,18.2,134.4,17.2z M152.4,9.2c1-0.1,1.8,0.7,1.9,1.7c0.1,1-0.7,1.8-1.7,1.9c-1,0.1-1.8-0.7-1.9-1.7
	C150.7,10,151.4,9.2,152.4,9.2z M178.9,6.2c-0.1-1-0.9-1.7-1.9-1.7c-1,0.1-1.7,0.9-1.7,1.9c0.1,1,0.9,1.7,1.9,1.7
	C178.2,7.9,179,7.1,178.9,6.2z"/>
<circle class="st4" cx="205" cy="405.5" r="4"/>
<circle class="st5" cx="205" cy="405.5" r="1.5"/>
<path class="st4" d="M408,207c0,1.9-1.7,3.5-4,3.5s-4-1.6-4-3.5s1.7-3.5,4-3.5S408,205.1,408,207z"/>
<ellipse class="st5" cx="404" cy="207" rx="1.5" ry="2"/>
<path class="st4" d="M8.5,205c0,1.9-1.7,3.5-4,3.5s-4-1.6-4-3.5s1.7-3.5,4-3.5S8.5,203.1,8.5,205z"/>
<circle class="st5" cx="4" cy="205" r="2"/>
</svg>